<svg width="620" height="620" viewBox="0 0 620 620" fill="none" xmlns="http://www.w3.org/2000/svg">
<path d="M310 0L428.439 146.983L604.828 214.205L501.638 372.267L492.213 560.795L310 511.5L127.787 560.795L118.362 372.267L15.1725 214.205L191.561 146.983L310 0Z" fill="#FBF2DD"/>
<path d="M200.32 339.8C194.827 339.8 190 338.547 185.84 336.04C181.733 333.48 178.56 329.933 176.32 325.4C174.08 320.813 172.96 315.533 172.96 309.56C172.96 303.32 174.133 297.907 176.48 293.32C178.88 288.733 182.213 285.187 186.48 282.68C190.747 280.12 195.653 278.84 201.2 278.84C205.84 278.84 209.893 279.693 213.36 281.4C216.827 283.053 219.627 285.213 221.76 287.88C223.947 290.493 225.333 293.213 225.92 296.04C226.133 297.053 226.16 297.72 226 298.04C225.84 298.307 225.467 298.493 224.88 298.6L212.72 300.44C212.133 300.44 211.76 300.333 211.6 300.12C211.44 299.853 211.307 299.48 211.2 299C210.933 297.4 210.373 295.933 209.52 294.6C208.667 293.213 207.52 292.093 206.08 291.24C204.64 290.387 202.907 289.96 200.88 289.96C198.587 289.96 196.613 290.6 194.96 291.88C193.307 293.107 192.027 295.107 191.12 297.88C190.267 300.653 189.84 304.387 189.84 309.08C189.84 314.04 190.32 317.933 191.28 320.76C192.24 323.587 193.573 325.613 195.28 326.84C197.04 328.013 199.093 328.6 201.44 328.6C202.827 328.6 204.053 328.413 205.12 328.04C206.24 327.667 207.2 327.16 208 326.52C208.853 325.827 209.547 325.053 210.08 324.2C210.667 323.293 211.12 322.333 211.44 321.32L211.6 319.8C211.92 318.947 211.68 318.52 210.88 318.52H202.32C201.84 318.52 201.467 318.413 201.2 318.2C200.987 317.987 200.88 317.56 200.88 316.92V310.04C200.88 309.24 201.387 308.84 202.4 308.84L224.32 309C225.173 309 225.813 309.213 226.24 309.64C226.72 310.013 226.96 310.52 226.96 311.16V337.72C226.96 338.093 226.853 338.413 226.64 338.68C226.427 338.893 226.107 339 225.68 339H222.88C222.4 339 221.973 338.893 221.6 338.68C221.227 338.467 220.88 338.093 220.56 337.56L217.76 332.44C217.653 332.227 217.52 332.12 217.36 332.12C217.253 332.12 217.12 332.253 216.96 332.52C215.947 333.587 214.747 334.68 213.36 335.8C212.027 336.92 210.293 337.88 208.16 338.68C206.08 339.427 203.467 339.8 200.32 339.8ZM256.627 335.32C255.08 336.6 253.32 337.667 251.347 338.52C249.374 339.373 247.107 339.8 244.547 339.8C240.494 339.8 237.32 338.707 235.027 336.52C232.787 334.28 231.667 331.48 231.667 328.12C231.667 325.027 232.627 322.333 234.547 320.04C236.467 317.747 239.214 315.96 242.787 314.68C246.36 313.4 250.6 312.733 255.507 312.68L257.187 312.6C257.4 312.6 257.64 312.547 257.907 312.44C258.227 312.28 258.387 311.96 258.387 311.48V309.96C258.387 308.2 257.907 306.84 256.947 305.88C255.987 304.92 254.574 304.44 252.707 304.44C251.32 304.44 249.96 304.76 248.627 305.4C247.347 305.987 246.28 307.08 245.427 308.68C245.214 309.053 245 309.32 244.787 309.48C244.574 309.587 244.147 309.587 243.507 309.48L234.147 307.56C233.827 307.453 233.587 307.267 233.427 307C233.267 306.733 233.347 306.147 233.667 305.24C235 301.933 237.347 299.533 240.707 298.04C244.067 296.547 248.28 295.8 253.347 295.8C258.04 295.8 261.72 296.36 264.387 297.48C267.107 298.6 269.027 300.147 270.147 302.12C271.32 304.093 271.907 306.413 271.907 309.08V337C271.907 337.747 271.8 338.28 271.587 338.6C271.374 338.867 270.92 339 270.227 339H260.627C259.987 339 259.534 338.76 259.267 338.28C259 337.747 258.814 337.16 258.707 336.52L258.627 335.32C258.467 334.307 257.8 334.307 256.627 335.32ZM258.387 320.6C258.387 319.64 257.987 319.187 257.187 319.24L255.907 319.32C254.947 319.32 253.854 319.48 252.627 319.8C251.454 320.067 250.307 320.493 249.187 321.08C248.12 321.613 247.24 322.307 246.547 323.16C245.854 324.013 245.507 325.027 245.507 326.2C245.507 327.587 245.987 328.68 246.947 329.48C247.907 330.28 249.214 330.68 250.867 330.68C252.094 330.68 253.134 330.493 253.987 330.12C254.894 329.747 255.614 329.32 256.147 328.84C256.787 328.307 257.32 327.773 257.747 327.24C258.174 326.653 258.387 326.013 258.387 325.32V320.6ZM294.176 336.84C294.176 337.64 293.962 338.2 293.536 338.52C293.162 338.84 292.576 339 291.776 339H281.776C280.442 339 279.776 338.387 279.776 337.16L280.096 281.32C280.096 280.2 280.576 279.64 281.536 279.64H292.816C293.722 279.64 294.176 280.147 294.176 281.16V336.84ZM316.207 336.84C316.207 337.64 315.994 338.2 315.567 338.52C315.194 338.84 314.607 339 313.807 339H303.807C302.474 339 301.807 338.387 301.807 337.16L302.127 281.32C302.127 280.2 302.607 279.64 303.567 279.64H314.847C315.754 279.64 316.207 280.147 316.207 281.16V336.84ZM336.798 321.72C336.798 323.533 337.198 325.08 337.998 326.36C338.851 327.64 339.971 328.627 341.358 329.32C342.798 329.96 344.398 330.28 346.158 330.28C347.758 330.28 349.305 329.933 350.798 329.24C352.291 328.493 353.891 327.213 355.598 325.4C355.811 325.187 355.998 325.08 356.158 325.08C356.318 325.027 356.638 325.08 357.118 325.24L363.678 327.96C364.531 328.333 364.638 328.92 363.998 329.72C362.131 332.333 360.238 334.387 358.318 335.88C356.451 337.32 354.371 338.333 352.078 338.92C349.785 339.507 347.171 339.8 344.238 339.8C340.078 339.8 336.318 338.893 332.958 337.08C329.598 335.267 326.958 332.76 325.038 329.56C323.118 326.36 322.158 322.653 322.158 318.44C322.158 313.907 323.145 309.933 325.118 306.52C327.145 303.107 329.811 300.467 333.118 298.6C336.478 296.733 340.105 295.8 343.998 295.8C348.158 295.8 351.811 296.707 354.958 298.52C358.158 300.28 360.665 302.84 362.478 306.2C364.345 309.56 365.278 313.64 365.278 318.44C365.278 319.08 365.198 319.56 365.038 319.88C364.931 320.2 364.558 320.387 363.918 320.44H337.918C337.598 320.44 337.331 320.547 337.118 320.76C336.905 320.973 336.798 321.293 336.798 321.72ZM350.078 312.92C350.611 312.92 350.958 312.867 351.118 312.76C351.331 312.6 351.438 312.28 351.438 311.8C351.438 310.787 351.198 309.72 350.718 308.6C350.238 307.427 349.491 306.413 348.478 305.56C347.465 304.707 346.185 304.28 344.638 304.28C343.198 304.28 341.891 304.627 340.718 305.32C339.545 305.96 338.638 306.92 337.998 308.2C337.358 309.48 337.038 311.027 337.038 312.84L350.078 312.92ZM372.869 339C372.123 339 371.616 338.867 371.349 338.6C371.083 338.28 370.949 337.8 370.949 337.16V298.28C370.949 297.16 371.403 296.6 372.309 296.6H383.349C384.203 296.6 384.629 297.08 384.629 298.04V302.68C384.629 303.053 384.763 303.293 385.029 303.4C385.349 303.453 385.643 303.293 385.909 302.92C386.869 301.533 388.016 300.307 389.349 299.24C390.683 298.173 392.096 297.347 393.589 296.76C395.083 296.12 396.443 295.8 397.669 295.8C399.643 295.8 400.629 296.307 400.629 297.32V308.04C400.629 309.053 400.149 309.453 399.189 309.24C398.123 308.973 396.976 308.787 395.749 308.68C394.576 308.52 393.643 308.44 392.949 308.44C391.989 308.44 391.056 308.627 390.149 309C389.243 309.32 388.389 309.773 387.589 310.36C386.843 310.947 386.256 311.613 385.829 312.36C385.403 313.107 385.189 313.853 385.189 314.6V336.92C385.189 338.307 384.389 339 382.789 339H372.869ZM410.662 352.2C409.009 352.2 407.835 352.093 407.142 351.88C406.449 351.72 406.102 351.293 406.102 350.6V343.4C406.102 343.027 406.262 342.68 406.582 342.36C406.902 342.093 407.489 341.96 408.342 341.96H413.862C414.822 341.96 415.702 341.773 416.502 341.4C417.302 341.027 417.942 340.573 418.422 340.04C418.902 339.507 419.222 338.92 419.382 338.28C419.595 337.64 419.595 337.027 419.382 336.44L403.862 298.76C403.702 298.173 403.755 297.667 404.022 297.24C404.289 296.813 404.715 296.6 405.302 296.6H417.142C417.622 296.6 418.022 296.76 418.342 297.08C418.715 297.347 418.982 297.667 419.142 298.04L426.902 319.48C427.062 319.96 427.275 320.227 427.542 320.28C427.809 320.28 428.049 320.013 428.262 319.48L436.022 298.04C436.235 297.667 436.502 297.347 436.822 297.08C437.142 296.76 437.515 296.6 437.942 296.6H445.942C446.529 296.6 446.929 296.813 447.142 297.24C447.409 297.667 447.435 298.147 447.222 298.68L431.222 337.72C429.942 340.813 428.662 343.293 427.382 345.16C426.102 347.08 424.689 348.547 423.142 349.56C421.595 350.573 419.809 351.267 417.782 351.64C415.755 352.013 413.382 352.2 410.662 352.2Z" fill="#1F89C3"/>
</svg>
