<svg width="620" height="620" viewBox="0 0 620 620" fill="none" xmlns="http://www.w3.org/2000/svg">
<path d="M310 0L428.439 146.983L604.828 214.205L501.638 372.267L492.213 560.795L310 511.5L127.787 560.795L118.362 372.267L15.1725 214.205L191.561 146.983L310 0Z" fill="#FBF2DD"/>
<path d="M219.12 339.8C213.413 339.8 208.427 338.573 204.16 336.12C199.947 333.667 196.693 330.173 194.4 325.64C192.107 321.053 190.96 315.667 190.96 309.48C190.96 303.24 192.133 297.827 194.48 293.24C196.827 288.653 200.107 285.107 204.32 282.6C208.533 280.093 213.467 278.84 219.12 278.84C224.827 278.84 229.76 280.093 233.92 282.6C238.133 285.107 241.387 288.653 243.68 293.24C246.027 297.827 247.2 303.24 247.2 309.48C247.2 315.667 246.053 321.027 243.76 325.56C241.467 330.093 238.213 333.613 234 336.12C229.787 338.573 224.827 339.8 219.12 339.8ZM219.2 328.6C223.093 328.6 225.893 327.133 227.6 324.2C229.36 321.267 230.24 316.44 230.24 309.72C230.24 302.733 229.36 297.693 227.6 294.6C225.84 291.507 223.013 289.96 219.12 289.96C215.227 289.96 212.373 291.507 210.56 294.6C208.8 297.693 207.92 302.733 207.92 309.72C207.92 316.44 208.8 321.267 210.56 324.2C212.32 327.133 215.2 328.6 219.2 328.6ZM255.948 339C254.668 339 254.028 338.387 254.028 337.16V298.28C254.028 297.16 254.481 296.6 255.388 296.6H266.668C267.574 296.6 268.028 297.08 268.028 298.04V301.88C268.028 302.2 268.108 302.413 268.268 302.52C268.428 302.573 268.668 302.467 268.988 302.2C270.268 300.92 271.574 299.8 272.908 298.84C274.294 297.88 275.761 297.133 277.308 296.6C278.854 296.013 280.428 295.72 282.028 295.72C284.801 295.72 287.174 296.387 289.148 297.72C291.121 299.053 292.534 300.92 293.388 303.32C293.494 303.533 293.628 303.613 293.788 303.56C294.001 303.507 294.214 303.373 294.428 303.16C295.548 301.773 296.881 300.547 298.428 299.48C299.974 298.36 301.601 297.48 303.308 296.84C305.068 296.147 306.748 295.8 308.348 295.8C312.028 295.8 314.988 296.947 317.228 299.24C319.521 301.533 320.668 304.76 320.668 308.92V336.84C320.668 338.28 319.921 339 318.428 339H308.108C307.468 339 307.014 338.867 306.748 338.6C306.534 338.333 306.428 337.853 306.428 337.16V310.6C306.428 309.107 306.001 307.96 305.148 307.16C304.294 306.36 303.121 305.96 301.628 305.96C300.774 305.96 299.948 306.147 299.148 306.52C298.348 306.84 297.601 307.267 296.908 307.8C296.268 308.333 295.681 308.893 295.148 309.48C294.881 309.853 294.694 310.227 294.588 310.6C294.481 310.92 294.428 311.293 294.428 311.72V336.84C294.428 338.28 293.708 339 292.268 339H281.948C281.361 339 280.934 338.867 280.668 338.6C280.401 338.333 280.268 337.853 280.268 337.16V310.6C280.268 309.107 279.841 307.96 278.988 307.16C278.188 306.36 277.014 305.96 275.468 305.96C274.081 305.96 272.801 306.333 271.628 307.08C270.454 307.773 269.334 308.893 268.268 310.44V336.92C268.268 338.307 267.468 339 265.868 339H255.948ZM364.264 339.8C359.944 339.8 356.13 338.867 352.824 337C349.57 335.133 347.01 332.573 345.144 329.32C343.33 326.013 342.424 322.253 342.424 318.04C342.424 313.56 343.384 309.667 345.304 306.36C347.224 303 349.837 300.413 353.144 298.6C356.45 296.733 360.184 295.8 364.344 295.8C368.717 295.8 372.53 296.76 375.784 298.68C379.09 300.6 381.65 303.24 383.464 306.6C385.33 309.907 386.264 313.72 386.264 318.04C386.264 322.253 385.33 326.013 383.464 329.32C381.597 332.573 379.01 335.133 375.704 337C372.45 338.867 368.637 339.8 364.264 339.8ZM364.344 330.52C366.05 330.52 367.464 330.067 368.584 329.16C369.704 328.253 370.53 326.84 371.064 324.92C371.597 323 371.864 320.6 371.864 317.72C371.864 314.787 371.57 312.36 370.984 310.44C370.45 308.52 369.624 307.107 368.504 306.2C367.437 305.24 366.05 304.76 364.344 304.76C362.69 304.76 361.277 305.24 360.104 306.2C358.984 307.107 358.157 308.52 357.624 310.44C357.09 312.36 356.824 314.787 356.824 317.72C356.824 320.653 357.09 323.08 357.624 325C358.157 326.867 358.984 328.253 360.104 329.16C361.277 330.067 362.69 330.52 364.344 330.52ZM418.473 308.2C417.619 307.187 416.499 306.28 415.113 305.48C413.726 304.627 411.966 304.2 409.833 304.2C408.179 304.2 406.766 304.52 405.593 305.16C404.419 305.747 403.833 306.627 403.833 307.8C403.833 308.28 404.046 308.787 404.473 309.32C404.899 309.8 405.939 310.227 407.593 310.6L416.393 312.6C421.139 313.613 424.473 315.32 426.393 317.72C428.313 320.12 429.273 322.813 429.273 325.8C429.273 328.733 428.446 331.267 426.793 333.4C425.139 335.48 422.819 337.08 419.833 338.2C416.899 339.267 413.486 339.8 409.593 339.8C404.633 339.8 400.473 338.947 397.113 337.24C393.753 335.533 391.406 333.48 390.073 331.08C389.859 330.653 389.753 330.253 389.753 329.88C389.753 329.453 389.913 329.133 390.233 328.92L396.473 325.72C397.113 325.453 397.593 325.347 397.913 325.4C398.233 325.453 398.499 325.613 398.713 325.88C399.406 326.733 400.179 327.56 401.033 328.36C401.886 329.107 403.006 329.747 404.393 330.28C405.779 330.76 407.539 330.973 409.673 330.92C410.953 330.867 412.126 330.707 413.193 330.44C414.259 330.173 415.086 329.773 415.673 329.24C416.313 328.707 416.633 328.04 416.633 327.24C416.633 326.547 416.339 325.933 415.753 325.4C415.166 324.867 413.966 324.413 412.153 324.04L403.993 322.44C399.939 321.64 396.819 320.227 394.633 318.2C392.499 316.173 391.406 313.453 391.353 310.04C391.353 307.32 392.073 304.893 393.513 302.76C394.953 300.573 397.059 298.867 399.833 297.64C402.659 296.413 406.046 295.8 409.993 295.8C414.206 295.8 417.806 296.573 420.793 298.12C423.833 299.613 425.966 301.373 427.193 303.4C427.459 303.773 427.646 304.173 427.753 304.6C427.913 305.027 427.726 305.347 427.193 305.56L420.633 308.76C420.153 308.973 419.753 309.027 419.433 308.92C419.113 308.813 418.793 308.573 418.473 308.2Z" fill="#1F89C3"/>
</svg>
