<svg width="101" height="96" viewBox="0 0 101 96" fill="none" xmlns="http://www.w3.org/2000/svg">
<g filter="url(#filter0_d_2_143)">
<path d="M48.8676 1.30597C49.6646 0.180048 51.3354 0.180047 52.1324 1.30597L67.8569 23.519C68.1107 23.8775 68.4754 24.1425 68.8947 24.273L94.8798 32.3638C96.1969 32.7738 96.7132 34.3628 95.8886 35.4687L79.6219 57.2879C79.3594 57.64 79.2201 58.0687 79.2255 58.5079L79.5606 85.7213C79.5776 87.1007 78.2259 88.0827 76.9193 87.6403L51.1414 78.9122C50.7254 78.7713 50.2746 78.7713 49.8586 78.9122L24.0807 87.6403C22.7741 88.0827 21.4224 87.1007 21.4394 85.7213L21.7745 58.5079C21.7799 58.0687 21.6406 57.64 21.3781 57.2879L5.11137 35.4687C4.28686 34.3628 4.80313 32.7738 6.12024 32.3638L32.1053 24.273C32.5246 24.1425 32.8893 23.8775 33.1431 23.519L48.8676 1.30597Z" fill="#F6D05B"/>
</g>
<defs>
<filter id="filter0_d_2_143" x="0.713745" y="0.461517" width="99.5725" height="95.286" filterUnits="userSpaceOnUse" color-interpolation-filters="sRGB">
<feFlood flood-opacity="0" result="BackgroundImageFix"/>
<feColorMatrix in="SourceAlpha" type="matrix" values="0 0 0 0 0 0 0 0 0 0 0 0 0 0 0 0 0 0 127 0" result="hardAlpha"/>
<feOffset dy="4"/>
<feGaussianBlur stdDeviation="2"/>
<feComposite in2="hardAlpha" operator="out"/>
<feColorMatrix type="matrix" values="0 0 0 0 0 0 0 0 0 0 0 0 0 0 0 0 0 0 0.25 0"/>
<feBlend mode="normal" in2="BackgroundImageFix" result="effect1_dropShadow_2_143"/>
<feBlend mode="normal" in="SourceGraphic" in2="effect1_dropShadow_2_143" result="shape"/>
</filter>
</defs>
</svg>
