<?xml version="1.0" encoding="UTF-8"?><svg xmlns="http://www.w3.org/2000/svg" width="300" height="300" viewBox="0 0 300 300"><defs><style>.uuid-136e2eaa-6e54-4287-8c65-8e2173a39f60{fill:#f8c83a;stroke:#f8c83a;stroke-miterlimit:10;stroke-width:7px;}.uuid-73815d5e-6154-4c9b-9aea-574aaada2598{fill:#ffcb30;stroke-width:0px;}.uuid-7ced6d72-b68f-46e2-9eac-fcfec000c9e8{isolation:isolate;}.uuid-66dee29f-e994-44ed-a9c4-c4a80638ac5c{mix-blend-mode:multiply;}</style></defs><g class="uuid-7ced6d72-b68f-46e2-9eac-fcfec000c9e8"><g id="uuid-cbdf942b-928b-42e9-b4ca-daabf6d85c8f"><circle class="uuid-73815d5e-6154-4c9b-9aea-574aaada2598" cx="150" cy="151" r="150"/><g class="uuid-66dee29f-e994-44ed-a9c4-c4a80638ac5c"><path class="uuid-136e2eaa-6e54-4287-8c65-8e2173a39f60" d="m109.09,162.37l-12.11,32.18h-15.57l39.62-102.31h18.17l39.79,102.31h-16.09l-12.46-32.18h-41.35Zm38.23-10.32l-11.42-29.45c-2.59-6.68-4.33-12.75-6.05-18.67h-.35c-1.73,6.07-3.63,12.29-5.88,18.52l-11.42,29.6h35.12Z"/><path class="uuid-136e2eaa-6e54-4287-8c65-8e2173a39f60" d="m212.02,100.44c.17,4.55-3.63,8.2-9.69,8.2-5.36,0-9.17-3.64-9.17-8.2s3.98-8.35,9.52-8.35,9.34,3.64,9.34,8.35Zm-16.95,94.11v-73.47h15.22v73.47h-15.22Z"/></g></g></g></svg>