<?xml version="1.0" encoding="UTF-8"?><svg xmlns="http://www.w3.org/2000/svg" width="300" height="300" viewBox="0 0 300 300"><defs><style>.uuid-6ad0ff94-c131-4b60-9d7c-7bab90d58059{stroke:#fff;stroke-miterlimit:10;stroke-width:24.09px;}.uuid-6ad0ff94-c131-4b60-9d7c-7bab90d58059,.uuid-adf4081a-5b72-4633-aa1c-67875cc4b288{fill:#fff;}.uuid-83e2bb02-07f8-4f6e-ae9e-cab638625c01{fill:#0688c2;}.uuid-83e2bb02-07f8-4f6e-ae9e-cab638625c01,.uuid-3f18a831-c6f5-4911-8b02-ce7bb9ede3d3,.uuid-adf4081a-5b72-4633-aa1c-67875cc4b288{stroke-width:0px;}.uuid-83e2bb02-07f8-4f6e-ae9e-cab638625c01,.uuid-60b9d98e-01d6-46cf-bed6-ffd98af016a8{mix-blend-mode:multiply;}.uuid-3f18a831-c6f5-4911-8b02-ce7bb9ede3d3{fill:#e14638;}.uuid-e9d0372f-f9d8-46a7-b049-bf0babb75ca2{isolation:isolate;}</style></defs><g class="uuid-e9d0372f-f9d8-46a7-b049-bf0babb75ca2"><g id="uuid-047a3366-594b-4346-965c-529f0597cdba"><circle class="uuid-83e2bb02-07f8-4f6e-ae9e-cab638625c01" cx="151" cy="150.5" r="150"/><g class="uuid-60b9d98e-01d6-46cf-bed6-ffd98af016a8"><circle class="uuid-3f18a831-c6f5-4911-8b02-ce7bb9ede3d3" cx="151" cy="150.5" r="150"/></g><circle class="uuid-adf4081a-5b72-4633-aa1c-67875cc4b288" cx="155.51" cy="90.07" r="33.39"/><path class="uuid-adf4081a-5b72-4633-aa1c-67875cc4b288" d="m155.51,57.29c18.07,0,32.77,14.7,32.77,32.77s-14.7,32.77-32.77,32.77-32.77-14.7-32.77-32.77,14.7-32.77,32.77-32.77m0-1.23c-18.78,0-34,15.22-34,34s15.22,34,34,34,34-15.22,34-34-15.22-34-34-34h0Z"/><line class="uuid-6ad0ff94-c131-4b60-9d7c-7bab90d58059" x1="154.53" y1="256.24" x2="154.85" y2="89.85"/><line class="uuid-6ad0ff94-c131-4b60-9d7c-7bab90d58059" x1="236.33" y1="170.41" x2="81" y2="11"/><circle class="uuid-adf4081a-5b72-4633-aa1c-67875cc4b288" cx="155.51" cy="253" r="33.39"/><path class="uuid-adf4081a-5b72-4633-aa1c-67875cc4b288" d="m155.51,220.22c18.07,0,32.77,14.7,32.77,32.77s-14.7,32.77-32.77,32.77-32.77-14.7-32.77-32.77,14.7-32.77,32.77-32.77m0-1.23c-18.78,0-34,15.22-34,34s15.22,34,34,34,34-15.22,34-34-15.22-34-34-34h0Z"/><circle class="uuid-adf4081a-5b72-4633-aa1c-67875cc4b288" cx="243.46" cy="176.47" r="33.39"/><path class="uuid-adf4081a-5b72-4633-aa1c-67875cc4b288" d="m243.46,143.7c18.07,0,32.77,14.7,32.77,32.77s-14.7,32.77-32.77,32.77-32.77-14.7-32.77-32.77,14.7-32.77,32.77-32.77m0-1.23c-18.78,0-34,15.22-34,34s15.22,34,34,34,34-15.22,34-34-15.22-34-34-34h0Z"/></g></g></svg>