<svg width="996" height="950" viewBox="0 0 996 950" fill="none" xmlns="http://www.w3.org/2000/svg">
<path d="M478.99 11.639C487.476 -2.93093 508.524 -2.93094 517.01 11.6389L668.986 272.565C672.095 277.902 677.304 281.687 683.34 282.994L978.459 346.901C994.938 350.469 1001.44 370.488 990.208 383.061L789.016 608.229C784.9 612.834 782.911 618.958 783.533 625.103L813.95 925.526C815.649 942.301 798.62 954.673 783.191 947.874L506.871 826.109C501.219 823.619 494.781 823.619 489.129 826.109L212.809 947.874C197.38 954.673 180.351 942.301 182.05 925.526L212.467 625.103C213.089 618.958 211.1 612.834 206.984 608.229L5.79217 383.061C-5.44223 370.488 1.06213 350.469 17.5413 346.901L312.66 282.994C318.696 281.687 323.905 277.902 327.014 272.565L478.99 11.639Z" fill="#9FBC39"/>
</svg>
