<?xml version="1.0" encoding="UTF-8"?><svg id="uuid-284a3442-6232-4362-ae20-ed30b8b990fa" xmlns="http://www.w3.org/2000/svg" width="350" height="350" viewBox="0 0 350 350"><defs><style>.uuid-5f8d049a-5de3-4fb3-9421-a70f32b6b942{fill:#3b2089;}.uuid-5f8d049a-5de3-4fb3-9421-a70f32b6b942,.uuid-cf399868-5d4f-48f3-8338-8e2d73529925,.uuid-b68948ca-70d7-4fb2-872d-d42540837df8,.uuid-1821accb-2a20-45e5-b41b-72d481d9eece,.uuid-53bd583c-67f0-42cd-8aaa-7a8fa49fceb2,.uuid-93ada9b3-1c7b-4576-adf4-56e2fe5ddc06{stroke-width:0px;}.uuid-cf399868-5d4f-48f3-8338-8e2d73529925{fill:#57bd7b;}.uuid-b68948ca-70d7-4fb2-872d-d42540837df8{fill:#0071bc;}.uuid-1821accb-2a20-45e5-b41b-72d481d9eece{fill:#3a8355;}.uuid-53bd583c-67f0-42cd-8aaa-7a8fa49fceb2{fill:#fbb03b;}.uuid-93ada9b3-1c7b-4576-adf4-56e2fe5ddc06{fill:#f2f2f2;}</style></defs><path class="uuid-cf399868-5d4f-48f3-8338-8e2d73529925" d="m61.92,299.01c-.32-.28-1.06-.06-1.37-.33s-.95-.2-1.26-.48-.17-1.08-.48-1.35-1.01-.15-1.31-.43,0-1.23-.3-1.51-.79-.39-1.09-.67-.86-.33-1.15-.62c-.31-.3-.25-.95-.54-1.24-.3-.31-1.09-.12-1.38-.41-.3-.31-.54-.66-.82-.95-.3-.32-.59-.62-.86-.92-.3-.32-.16-1.03-.42-1.32-.3-.33-.69-.54-.95-.82-.31-.35-.99-.31-1.23-.59-.34-.4-.14-1.12-.33-1.35-.28-.33-.23-.93-.5-1.26s-1.15-.18-1.42-.52.23-1.28-.03-1.62-1.61.15-1.87-.2-.5-.72-.75-1.06-.53-.69-.78-1.04.04-1.09-.21-1.45-.19-.92-.43-1.27-1.28-.18-1.52-.54.44-1.32.2-1.68-1.38-.14-1.61-.51.32-1.22.09-1.59-1.39-.17-1.61-.54.11-1.08-.1-1.45-.91-.47-1.13-.85-.38-.79-.59-1.17.14-1.07-.07-1.45-.78-.57-.98-.95-.72-.61-.92-.99-.22-.87-.41-1.25.1-1.02-.09-1.4.2-1.05.02-1.44-1.32-.35-1.5-.74.33-1.09.15-1.49-1.27-.4-1.44-.79-.26-.84-.43-1.23.13-.99-.03-1.39.39-1.08.23-1.48-1.29-.44-1.44-.84.55-1.12.4-1.53-.79-.63-.93-1.04-.46-.76-.6-1.17.4-1.04.27-1.45-1.3-.49-1.43-.91.68-1.11.55-1.52.02-.9-.1-1.31-.64-.71-.75-1.13-.8-.68-.91-1.1.45-1.01.35-1.43-.59-.74-.69-1.16.15-.92.05-1.34-.24-.83-.34-1.25-.6-.76-.68-1.18.04-.89-.05-1.31.38-.95.3-1.38-.57-.77-.64-1.19.26-.92.19-1.34-.55-.78-.62-1.21-.69-.77-.76-1.19.4-.93.34-1.36-.09-.86-.14-1.29-.31-.83-.36-1.26.43-.92.38-1.35-.74-.79-.78-1.22-.47-.83-.51-1.26.52-.92.48-1.35.11-.88.08-1.31-.53-.83-.56-1.26-.51-.84-.53-1.27.6-.9.58-1.33,0-.87-.02-1.3-.38-.85-.39-1.29-.27-.86-.28-1.29-.09-.87-.09-1.3.14-.87.14-1.3.43-.87.43-1.3-.64-.87-.64-1.3.73-.86.73-1.29-.71-.89-.69-1.32.66-.85.68-1.28.73-.84.75-1.26-.05-.86-.03-1.29-1-.92-.97-1.35.8-.82.83-1.24.2-.85.23-1.28-.93-.94-.9-1.37.99-.78,1.03-1.21.21-.85.25-1.27-.51-.92-.46-1.35.14-.86.19-1.28.08-.86.13-1.29-.44-.93-.39-1.36,1.2-.71,1.25-1.14-.39-.93-.33-1.35.83-.75.9-1.17,0-.87.08-1.29-.48-.96-.41-1.38.08-.87.16-1.29c.08-.43.08-.88.16-1.29.08-.44.83-.73.91-1.14.09-.44-.18-.93-.1-1.34.09-.44.23-.85.32-1.25.1-.44.52-.78.61-1.18.1-.44-.11-.94-.02-1.33.11-.45-.5-1.05-.41-1.43.12-.47.19-.91.28-1.27.15-.57.82-.84.89-1.09.12-.42-.07-.93.06-1.34s.77-.67.9-1.08-.39-1.04-.25-1.44,1.07-.56,1.21-.96-.29-1.02-.15-1.42,1.14-.51,1.29-.92.22-.84.37-1.24.06-.9.21-1.3-.21-1.01-.05-1.41.2-.86.36-1.26.22-.85.39-1.25,1.46-.32,1.63-.72-.78-1.28-.61-1.68,1.1-.46,1.27-.85.16-.88.34-1.27.56-.69.75-1.08-.11-1.01.08-1.4.2-.87.39-1.26,1.13-.4,1.33-.78.74-.58.94-.96-.1-1.03.11-1.4.06-.95.27-1.33.09-.94.3-1.32,1.02-.42,1.24-.79.02-.99.24-1.36.24-.87.46-1.24,1.27-.24,1.5-.61.54-.68.77-1.04-.39-1.27-.16-1.63,1.04-.36,1.27-.72.86-.47,1.09-.82-.43-1.33-.18-1.68.38-.79.63-1.14,1.52.01,1.77-.34.43-.75.68-1.1.32-.83.57-1.18.68-.57.94-.92.19-.94.45-1.28.47-.73.73-1.07.45-.75.72-1.08,1.11-.22,1.38-.55-.28-1.35-.01-1.68.51-.71.78-1.03,1.13-.18,1.41-.5.09-1.06.37-1.38.5-.72.78-1.03.71-.53.99-.85.91-.35,1.19-.66.31-.9.6-1.21.42-.8.72-1.1.52-.71.81-1.01,1.49.24,1.79-.06.46-.76.76-1.06.43-.79.74-1.09.16-1.09.46-1.38.72-.51,1.02-.8c.32-.3,1.39-.22,1.69-.5-.23-.27-.74-.83-1.04-1.2-.24-.3-.62-.52-.89-.89-.23-.32-.04-.94-.29-1.31-.22-.33-1.58.04-1.81-.33-.21-.34-.06-.94-.28-1.32-.2-.35.3-1.09.1-1.47-.18-.36-1.45-.22-1.63-.61s-.21-.84-.37-1.23.19-.97.04-1.37-.9-.59-1.03-.99.73-1.09.62-1.5-1.03-.6-1.13-1.02,0-.87-.07-1.29.21-.89.16-1.31c-.06-.44.28-.92.24-1.35s-.59-.84-.61-1.28-.21-.89-.22-1.33.72-.88.73-1.31-.28-.9-.24-1.33c.04-.45.3-.86.35-1.28.06-.45.12-.88.19-1.3.08-.45.1-.88.18-1.3.1-.45.58-.77.68-1.18.12-.46-.61-1.11-.5-1.5.14-.46.05-.74.17-1.11-.24-.17-.41-.2-.86-.54-.3-.23-.61-.54-.98-.84-.31-.25-.66-.52-1.01-.82-.31-.26-.57-.63-.91-.93-.31-.27-.43-.78-.76-1.09-.3-.28-.87-.32-1.18-.63s-.8-.42-1.11-.73-.16-1.03-.46-1.35-.25-.92-.54-1.24-1.08-.19-1.36-.53-.61-.62-.88-.96-.43-.76-.68-1.11-.16-.94-.41-1.29-.13-.93-.36-1.29-.63-.6-.85-.97-.65-.6-.86-.98-.07-.91-.27-1.3-1.3-.33-1.47-.73.69-1.22.53-1.62-.39-.74-.53-1.15-1.23-.51-1.35-.92-.01-.9-.11-1.32.57-.99.5-1.41-1.37-.66-1.42-1.09.97-.96.94-1.39-.96-.83-.96-1.26,1.2-.83,1.22-1.26c.02-.43-.36-.86-.31-1.29s-.5-.94-.43-1.36.87-.7.96-1.12.4-.75.52-1.16-.25-.96-.11-1.36.77-.61.93-1-.72-1.25-.54-1.63.98-.48,1.18-.86.82-.5,1.04-.87.15-.89.38-1.25.56-.64.81-.99.32-.82.58-1.16.13-1,.41-1.32,1.31.02,1.6-.3.18-.99.48-1.29.54-.66.85-.96.24-1,.56-1.29.98-.18,1.31-.46,1.01-.1,1.35-.37.49-.74.84-1,.53-.72.88-.96.81-.33,1.16-.57.94-.11,1.3-.33.55-.72.92-.94.58-.71.95-.92.52-.85.9-1.05,1.08.24,1.47.05.69-.53,1.08-.71.79-.32,1.19-.49.8-.3,1.2-.46.62-.78,1.02-.93,1.13.61,1.53.47.64-.78,1.04-.91.94.17,1.35.05.84-.12,1.26-.23.72-.6,1.14-.7.72-.72,1.13-.81,1,.61,1.42.52.68-1.03,1.11-1.1.84-.29,1.26-.35.88,0,1.3-.06.91.39,1.33.35.88.35,1.31.33.81-.86,1.24-.87.87.47,1.3.46.86-.04,1.28-.03.83.52,1.26.54.93-1.15,1.36-1.12.84.4,1.26.44.73,1.01,1.16,1.07.86-.07,1.28,0,.92-.26,1.33-.17.99-.43,1.4-.33c.41.1.71.68,1.14.8s.79.33,1.21.47.79.33,1.21.47.84.21,1.24.37.8.32,1.2.49.9.09,1.3.27.52.93.91,1.12.67.57,1.05.76.9.13,1.28.33,1.01-.03,1.38.19.87.24,1.24.47.78.41,1.15.64.21,1.24.56,1.49.96.15,1.3.41.76.44,1.1.71.83.37,1.16.65.33.95.64,1.24.39.83.69,1.14.64.57.93.88,1.23.08,1.51.41.38.84.64,1.18.21.93.46,1.28-.06,1.05.16,1.42.48.68.68,1.06,1.51.21,1.69.6.36.83.52,1.23-.85,1.22-.72,1.63.3.77.41,1.19,1.36.6,1.44,1.02-.87,1-.82,1.43.87.8.89,1.24.18.89.17,1.33c-.01.44-.29.89-.33,1.32s-.91.76-.98,1.18.73,1.04.63,1.46-.7.73-.83,1.14-.49.75-.64,1.15-.71.62-.89,1.01.74,1.32.54,1.7-1.37.24-1.59.61.02,1.02-.22,1.38-.43.76-.69,1.11-.12,1.02-.39,1.36-1.1.24-1.38.56-.74.5-1.03.81-.27.95-.57,1.25-.34.93-.66,1.22-.56.72-.88,1-1.21-.06-1.54.2c-.35.28-.72.5-1.06.76-.36.27-.29,1.1-.63,1.34-.37.27-.76.49-1.1.72-.39.26-1.25-.27-1.59-.05-.42.26-.4,1.13-.72,1.32-.6.35-.78.65-.91.72-.25.33-1.07.19-1.29.54s-.84.54-1.02.91.26,1.05.11,1.44-.8.65-.91,1.04.62,1,.56,1.4-.26.79-.28,1.2-.84.84-.82,1.26,1.43.71,1.49,1.12-.23.83-.13,1.23.13.79.26,1.18-.24.99-.06,1.37c.19.4.85.54,1.06.9.23.38-.14,1.17.11,1.5.27.35.52.79.8,1.09.3.32.9.38,1.22.65.34.29.68.6,1.02.83.36.25.95.14,1.32.34.39.22.64.7,1.01.87.42.19.92.12,1.3.25.46.16,1.04-.39,1.4-.31.69.17,1.07,1.19,1.16,1.2.4-.13.65-.84,1.06-.98s.8-.3,1.21-.43.87-.08,1.28-.2.85-.14,1.26-.27.92.11,1.34-.02.7-.66,1.11-.78,1.02.47,1.44.35.55-1.2.96-1.32.92.11,1.33,0,.83-.21,1.25-.32.74-.56,1.16-.67,1.09.82,1.51.71.76-.49,1.18-.59.65-.93,1.07-1.03.91.14,1.33.04.79-.38,1.2-.47.74-.58,1.16-.67,1.05.78,1.47.68.71-.75,1.13-.84.76-.55,1.18-.64,1,.59,1.42.5.77-.5,1.19-.58.81-.33,1.23-.41,1.01.74,1.43.66.78-.47,1.2-.54.73-.76,1.16-.84.91.22,1.33.14.73-.84,1.15-.91.95.48,1.37.41.88.08,1.31.02.85-.1,1.27-.16.77-.66,1.19-.73.8-.47,1.23-.53.88.11,1.31.05.92.46,1.35.41.9.31,1.33.26.76-.85,1.19-.9.81-.48,1.24-.52.86-.03,1.29-.08.88.19,1.31.15.93.79,1.36.75.8-.62,1.23-.65.9.48,1.33.44.84-.22,1.27-.26.85-.11,1.28-.14.86,0,1.29-.02.86.03,1.29,0,.79-1.2,1.23-1.22.89.59,1.33.57.86-.07,1.3-.09c.43-.02.89.54,1.32.52s.82-1.39,1.25-1.41.88.41,1.32.4.88.71,1.32.7.85-1.08,1.28-1.09.88.67,1.31.66.86-.73,1.29-.74.87,1.15,1.3,1.16.86.18,1.3.18.88-1.07,1.31-1.07.86.29,1.3.3.85.6,1.29.61.87-.23,1.3-.22.87-.02,1.3,0,.88-.47,1.32-.45.84.66,1.28.68.88-.19,1.31-.17.86.11,1.3.13.91-.7,1.34-.68.84.49,1.27.52.83.52,1.27.55.94-.91,1.37-.88.81.78,1.24.82.91-.41,1.34-.37.85.21,1.28.25.88-.05,1.31,0,.81.58,1.24.62.86.13,1.29.18.93-.53,1.36-.48.88-.04,1.31.01.72,1.24,1.15,1.29.87.04,1.29.09.89-.13,1.31-.07.95-.54,1.38-.48.83.31,1.25.38.84.28,1.26.35.85.17,1.28.24.75.76,1.18.83.97-.54,1.39-.46.82.34,1.24.42.84.21,1.26.28.94-.3,1.36-.22.69.99,1.11,1.07.93-.22,1.35-.13.92-.19,1.34-.1.83.26,1.25.35.74.7,1.16.79.96-.34,1.37-.25.59.06,1.01.16c.15-.39.76-.3.94-.71.16-.38-.16-1,.03-1.4.18-.38.62-.64.82-1.03s0-.98.22-1.36.31-.83.54-1.2c.24-.37,1.4-.12,1.65-.48s.61-.61.87-.95-.2-1.26.07-1.59.93-.35,1.22-.67.13-1.08.42-1.39.5-.77.8-1.07,1.25.05,1.57-.23c.33-.3.76-.44,1.09-.71.35-.28.18-1.19.52-1.44.36-.27,1.32.32,1.66.09.37-.26.16-1.13.5-1.34-.16-.28-.19-.59-.44-1.04-.18-.33-.43-.68-.65-1.09-.18-.35-.84-.5-1.04-.91-.18-.36.41-1.12.22-1.52-.17-.37-.9-.51-1.08-.91-.16-.38.06-.94-.11-1.34s-.52-.7-.67-1.11.44-1.05.3-1.46-1.42-.41-1.55-.82.87-1.15.75-1.56-.43-.74-.54-1.16-.62-.71-.71-1.13-.42-.78-.5-1.2,0-.87-.06-1.29.14-.87.09-1.3.07-.85.04-1.27-.92-.8-.94-1.23.53-.87.53-1.3-.28-.86-.25-1.29.89-.77.94-1.19-.25-.87-.18-1.29-.64-1-.54-1.41.98-.64,1.1-1.05-.07-.91.08-1.31.78-.59.95-.98-.44-1.15-.25-1.53c.2-.39,1.19-.33,1.41-.7s-.45-1.33-.2-1.68,1.19-.21,1.46-.55.68-.53.97-.85.66-.52.97-.83.34-.88.66-1.17.17-1.19.51-1.45,1.39.43,1.75.19.56-.69.93-.92.37-1.09.75-1.3,1.12.27,1.51.08.41-1.18.8-1.35,1.27.79,1.67.63.45-1.24.86-1.38,1.12.65,1.54.51.5-1.32.92-1.44.9-.01,1.32-.12.78-.53,1.2-.62,1.08,1.03,1.51.95.67-1.21,1.1-1.28.9.14,1.33.08.89.22,1.33.17.87.15,1.31.11.81-.93,1.24-.95.88.17,1.31.15.87.87,1.31.87.87-.88,1.3-.87.83.92,1.26.94.92-1.01,1.35-.98.86.17,1.29.2.9-.22,1.33-.18.74,1.12,1.17,1.18.85.08,1.28.14.96-.52,1.39-.45.67,1.14,1.09,1.22.89-.1,1.32-.01,1.03-.65,1.45-.55.65.99,1.07,1.09.96-.25,1.38-.13.87.11,1.29.23.84.25,1.25.38.66.74,1.07.88,1-.22,1.41-.07.56.95.96,1.11.95-.04,1.35.13.72.5,1.12.68.87.19,1.26.38.62.69,1,.89,1.01-.05,1.39.16.69.56,1.05.78c.37.22.49.82.86,1.05s.53.73.89.97,1.25-.31,1.6-.06.67.54,1.02.8.87.29,1.21.56.34.95.67,1.23.76.43,1.09.71.17,1.1.49,1.39.73.45,1.05.75,1.04.16,1.34.46.54.68.84.99.48.73.77,1.05.55.66.83.98,1.03.24,1.31.56.3.88.57,1.21.83.44,1.1.78,0,1.09.27,1.43,1.1.26,1.35.61-.32,1.28-.07,1.63.7.56.93.92.92.43,1.15.79-.15,1.1.07,1.47.27.82.48,1.2.48.71.68,1.08.75.57.94.95-.12,1.01.06,1.39.89.53,1.07.92.49.73.66,1.12.41.77.56,1.17-.32,1.03-.18,1.43.39.77.51,1.18.22.82.33,1.24.18.83.27,1.25.67.73.76,1.15.25.84.32,1.26-.57.94-.52,1.37.16.83.19,1.26-.21.85-.19,1.28,1.01.84,1,1.27-.11.87-.14,1.3-.05.87-.1,1.3-1.08.7-1.15,1.12.6.98.5,1.4-.04.89-.16,1.3-.47.75-.62,1.16-.42.75-.6,1.14-.8.54-1,.92.54,1.29.32,1.66c-.23.38-1.07.35-1.32.71s-.89.39-1.16.73-.12,1.02-.42,1.34-.09,1.15-.4,1.45-1.41-.25-1.74.04-.67.51-1.02.78-.52.73-.88.97-.87.23-1.24.46-.3,1.2-.68,1.41-.81.36-1.2.55-.95.03-1.35.21-.61.8-1.01.97-.71.64-1.12.79-1.11-.49-1.52-.36-.93-.06-1.34.06-.81.3-1.23.41-.66.98-1.08,1.08-.94-.15-1.36-.07-.86.22-1.28.3c-.44.08-.8.63-1.22.69-.45.07-.87.27-1.29.32-.45.06-1.02-1.05-1.43-1.01-.46.05-.81,1.07-1.21,1.1-.48.04-.95-.3-1.34-.28-.55.03-.99.02-1.3.03-.29.01-.79-.56-1.31-.5-.36.05-.69.77-1.13.86-.38.08-.95-.45-1.37-.33-.38.11-.73.48-1.13.63-.38.14-.5.92-.88,1.1-.37.17-.6.53-.97.74s-1.07-.2-1.42.04-.73.42-1.06.69-.26.92-.56,1.22c-.32.32-1.03.27-1.29.59-.29.35-.22.95-.45,1.29-.25.38-.79.58-.98.93-.22.41-.48,1-.63,1.36.34.24.56.95.92,1.21.34.25,1.43-.5,1.78-.24s0,1.41.34,1.68,1.08,0,1.43.26.51.73.85,1.01,1.03.09,1.37.36.8.38,1.13.66.25,1.03.58,1.32.19,1.07.52,1.36,1.15-.01,1.47.28.99.19,1.31.48-.2,1.47.12,1.77.64.56.95.86.86.34,1.17.64,1.07.13,1.38.44.22.98.53,1.29.16,1.03.46,1.34,1.43-.18,1.73.13.62.6.92.91.11,1.06.4,1.38.53.67.81,1,.49.71.77,1.03,1.27.04,1.55.37.24.92.51,1.26.6.62.87.96.35.82.61,1.16.47.72.74,1.06.76.5,1.02.84.58.64.83.99-.37,1.33-.12,1.68.84.45,1.09.8.25.87.49,1.22,1.29.16,1.53.52.64.61.87.97-.36,1.25-.13,1.62.43.74.66,1.11,1.23.25,1.46.62.46.73.68,1.1.07.96.28,1.33.45.74.66,1.12.25.85.45,1.23.13.9.33,1.28,1.31.29,1.5.68-.16,1.05.03,1.44.13.89.32,1.28.27.82.45,1.21,1.16.41,1.34.81.23.85.4,1.24c.17.39.62.68.79,1.07s.26.83.42,1.23-.24,1.03-.08,1.43-.32,1.05-.17,1.45,1.23.45,1.38.85.18.85.32,1.26.76.65.9,1.05-.92,1.22-.79,1.63,1.03.57,1.16.97.3.81.43,1.22.33.8.45,1.21-.21.95-.09,1.37.54.74.65,1.15.25.82.36,1.24-.46,1-.36,1.41,1.15.61,1.24,1.03-.44.98-.35,1.4.61.75.69,1.17-.55.99-.46,1.4.4.79.48,1.21.89.72.96,1.14-.21.91-.14,1.33.35.82.42,1.24-.29.91-.24,1.33-.35.91-.3,1.33.06.85.1,1.28.51.81.55,1.23-.04.87,0,1.29.91.79.94,1.22-.06.87-.03,1.3-.79.91-.76,1.34.98.81,1,1.24-.25.88-.24,1.3-.27.87-.26,1.3.56.85.57,1.28-.59.87-.59,1.29-.5.86-.51,1.28.02.85,0,1.28,1.01.88.99,1.31.03.87.01,1.29-1.14.81-1.16,1.24.27.87.25,1.3.11.87.08,1.29.08.87.04,1.29-.09.85-.13,1.28.05.87,0,1.29-.87.77-.91,1.19.87.96.82,1.39.26.9.2,1.33-.15.85-.21,1.27-.54.79-.6,1.21-.69.76-.76,1.18.1.89.02,1.3-.04.87-.12,1.29.04.89-.04,1.31-.97.69-1.06,1.1.11.9.02,1.31.05.89-.04,1.3.01.89-.08,1.3-.24.83-.34,1.24-.36.8-.46,1.21-.69.71-.79,1.12-.1.86-.2,1.27.32.98.21,1.39-.31.81-.43,1.21-.37.79-.49,1.19-.8.66-.92,1.06c-.13.42.77,1.14.64,1.54-.13.42-1.29.5-1.42.89-.14.42.61,1.11.48,1.5-.14.42-.86.63-.99,1.02-.14.43.7,1.16.57,1.54-.12.35-.25.77-.41,1.22-.13.37-1.07.49-1.23.92-.14.38.22.96.06,1.39-.14.38-.71.62-.87,1.04-.15.38.45,1.08.28,1.49-.15.38-.55.69-.71,1.1-.16.38-.96.51-1.13.92s-.65.64-.82,1.04-.22.82-.4,1.22.48,1.14.3,1.54-1.25.35-1.44.74.57,1.2.38,1.59-.81.55-1,.94.04.97-.15,1.35-.8.54-1,.93-.59.65-.79,1.03-.31.79-.51,1.17,0,.97-.21,1.34-.78.54-.99.92.06,1.01-.16,1.38-.86.48-1.08.86.12,1.06-.1,1.43-1.37.17-1.59.54.19,1.11-.03,1.48-.91.43-1.14.8.38,1.25.14,1.61-.76.53-.99.89-.61.62-.85.98-.18.91-.43,1.26-.41.76-.65,1.11-1.52-.03-1.77.32-.18.91-.44,1.26-.25.87-.51,1.22-1.1.24-1.36.59,0,1.07-.26,1.41-1.02.28-1.29.62.13,1.19-.14,1.52-1.13.19-1.4.52.03,1.12-.24,1.45-.83.41-1.11.74-.88.36-1.16.69.11,1.22-.17,1.55-.56.65-.84.97-.77.46-1.06.77-.1,1.07-.39,1.39-.89.34-1.19.65-.46.75-.75,1.06-1.1.12-1.4.43-.31.89-.62,1.19-.35.86-.66,1.16-.82.39-1.13.68-.93.26-1.24.55-.46.76-.78,1.05-.18,1.07-.5,1.36-.77.43-1.09.71-1.32-.21-1.64.08-.48.74-.81,1.02-.25,1.03-.57,1.31-.88.28-1.21.56-.89.25-1.22.52.04,1.43-.29,1.69-1.18-.11-1.52.15-.74.44-1.08.7-.12,1.27-.47,1.53-1.08-.03-1.43.23-.53.73-.88.98-1.24-.28-1.59-.03-.17,1.26-.53,1.5-.69.5-1.05.74-.61.63-.98.87-1.04-.02-1.4.21-.48.86-.85,1.09c-.37.23-.65.6-1.02.82s-1.36-.58-1.73-.36-.1,1.53-.47,1.75-1.4-.7-1.77-.49-.48.9-.85,1.11-.55.8-.92,1.01-.58.76-.95.96-.87.2-1.25.4-1.27-.6-1.65-.41-.36,1.22-.74,1.41-1.03-.16-1.42.02-.61.73-1,.91-.72.51-1.11.68-.92.05-1.31.22-.63.72-1.02.89-.89.11-1.28.27-.63.74-1.03.9-1.16-.61-1.56-.46-.86.15-1.26.3-.83.23-1.23.38-.61.84-1.02.98-.92-.05-1.33.09-.83.21-1.24.34-.49,1.29-.9,1.42-.81.31-1.22.43-1.16-.88-1.57-.75-.66.81-1.07.93-.89,0-1.31.11-.74.56-1.15.67-.9-.05-1.32.06-.73.64-1.14.74-.8.34-1.22.44-.92-.13-1.33-.03-.72.71-1.14.81-1.02-.63-1.44-.54-.65,1.03-1.07,1.13-.94-.31-1.36-.22-.81.3-1.23.38-.77.53-1.19.62-1.08-1.04-1.5-.96-.66,1.07-1.08,1.15-.82.3-1.24.38-.94-.36-1.36-.28-.72.81-1.14.89-.96-.49-1.38-.41-.77.56-1.19.64-1.04-.88-1.46-.8c-.4.07-.78.41-1.22.49-.41.07-.79.37-1.23.45-.41.07-.75.63-1.19.71-.41.07-.89-.16-1.33-.09-.41.07-.84.16-1.28.23s-.85.12-1.28.19-.85.07-1.29.14-.73.86-1.16.93-1-.87-1.43-.81-.81.35-1.24.42-.86.05-1.29.11-.76.72-1.2.78-.89-.17-1.32-.11-.85.1-1.29.15-.79.62-1.22.68-.93-.51-1.36-.46-.77.81-1.2.86-.95-.74-1.38-.69-.82.39-1.25.44-.94-.73-1.37-.68-.81.5-1.24.55-.87-.14-1.31-.1-.87-.1-1.3-.06-.79.88-1.22.92-.9-.55-1.34-.52-.79,1.02-1.22,1.05-.86.09-1.29.12-.87-.12-1.31-.1-.91-.85-1.34-.83-.87-.13-1.3-.11-.81,1.21-1.24,1.22-.87-.13-1.3-.11-.85.35-1.29.36-.9-1.17-1.33-1.16-.85.67-1.28.68-.87-.74-1.3-.74-.85.42-1.28.42-.86-.31-1.29-.31-.86,1.11-1.29,1.11-.85-1.01-1.29-1.01-.85-.19-1.29-.19-.88,1.01-1.31,1-.86-.21-1.29-.22-.84-.77-1.27-.78-.86.19-1.3.18-.88.49-1.31.47-.83-.7-1.26-.72-.91.92-1.34.89-.85-.25-1.28-.28-.88.28-1.32.25-.81-.72-1.25-.75-.88.15-1.31.11-.86-.11-1.29-.15-.85-.2-1.28-.24-.91.49-1.35.44-.88.06-1.31.02-.73-1.27-1.16-1.32-.99,1.04-1.42.99-.82-.46-1.25-.51-.79-.65-1.21-.71-.86-.05-1.29-.11-.84-.23-1.27-.29-.86-.07-1.29-.14-1,.77-1.42.7-.79-.55-1.21-.62-.9.11-1.32.03-.7-.96-1.13-1.04-.94.35-1.37.27-.86-.12-1.28-.21-.69-.94-1.11-1.03-.81-.34-1.23-.43-.96.37-1.39.28-.84-.2-1.26-.3-.81-.34-1.23-.44-.91.08-1.33-.02-.87-.1-1.29-.21-.97.3-1.39.19-.79-.41-1.21-.52-.82-.3-1.23-.42-.55-1.23-.96-1.35-.98.29-1.4.17-.72-.58-1.14-.71-.85-.15-1.27-.28-.89-.05-1.3-.19-.96.16-1.38.02-.91-.02-1.32-.16-.45-1.34-.86-1.48-.87-.12-1.28-.27-.75-.45-1.16-.6-.76-.41-1.17-.56-1.05.33-1.46.17-.56-.92-.96-1.09-1.01.19-1.41.02-.71-.53-1.11-.7-1.09.33-1.48.16-.43-1.17-.82-1.35-.96.03-1.36-.15-1.05.2-1.44.02-.74-.47-1.13-.65-.29-1.38-.68-1.57-1.01.09-1.39-.11-.78-.38-1.16-.58-.63-.66-1.01-.86-.93-.09-1.31-.3-.76-.42-1.14-.63-.95-.08-1.32-.3-.82-.32-1.2-.53-.82-.32-1.2-.54-.59-.71-.96-.93-.25-1.24-.62-1.47-.8-.35-1.16-.58-1.07.07-1.43-.16-.85-.28-1.21-.52-.64-.61-1-.85-.25-1.17-.61-1.41-1.05,0-1.4-.25-.62-.62-.97-.87-1.02-.07-1.37-.32-.54-.72-.89-.98-.92-.22-1.27-.48-.25-1.1-.59-1.37-.93-.21-1.27-.48-.93-.23-1.26-.5-.41-.87-.75-1.15-.83-.36-1.16-.64-.08-1.25-.41-1.53Z"/><path class="uuid-5f8d049a-5de3-4fb3-9421-a70f32b6b942" d="m178.85,302.92c-.38.06-.72.85-1.2.92-.4.05-.85.06-1.31.11-.41.05-.9-.47-1.36-.43-.42.03-.82.56-1.27.59-.42.02-.85.51-1.3.52s-.88-1.26-1.32-1.26-.88,1.03-1.33,1.01-.86-.36-1.3-.39-.87-.06-1.31-.11-.81-.48-1.25-.55-.87-.02-1.3-.11-.89.01-1.32-.09-.73-.63-1.15-.75-.9-.01-1.31-.16-.78-.38-1.18-.55-.99.07-1.38-.12-1.01-.01-1.39-.23-.57-.8-.94-1.04-.46-.86-.81-1.13-.91-.26-1.24-.56-.42-.82-.73-1.14c-.31-.32-1.23-.11-1.5-.45s.13-1.24-.12-1.59-.55-.68-.78-1.05,0-.98-.2-1.37-.63-.64-.8-1.04-.41-.76-.56-1.17-.7-.69-.83-1.11.34-1.01.24-1.43-.26-.83-.35-1.25c-.09-.44-.59-.79-.65-1.21-.07-.45-.72-.81-.77-1.23-.06-.46.24-.94.2-1.35-.04-.43.72-.94.67-1.37s-.64-.81-.68-1.24.32-.9.29-1.33-.24-.85-.28-1.28-.72-.81-.76-1.24.75-.93.72-1.36-.68-.82-.71-1.25-.41-.84-.44-1.27.21-.89.19-1.32.29-.89.27-1.32-.26-.85-.28-1.28.49-.89.47-1.32-.77-.83-.79-1.26-.22-.86-.24-1.29.19-.88.17-1.31.56-.89.55-1.32-.28-.86-.3-1.29.08-.87.07-1.3-.45-.86-.46-1.29-.27-.86-.28-1.29.01-.87,0-1.3.16-.87.16-1.3.44-.87.44-1.3.69-.86.7-1.29-1.33-.88-1.32-1.31.56-.86.56-1.29-.46-.88-.45-1.31.19-.86.2-1.29.75-.84.76-1.27-.51-.88-.49-1.31.84-.83.86-1.26.11-.86.13-1.29-.59-.89-.57-1.32-.45-.89-.42-1.32.51-.84.54-1.26.69-.82.72-1.25-.92-.93-.89-1.36.07-.86.11-1.29.68-.81.72-1.24-.48-.91-.44-1.34-.03-.87.01-1.3.56-.81.6-1.24-.5-.93-.45-1.35.24-.84.3-1.27.1-.86.15-1.28.19-.85.25-1.27.48-.81.54-1.23.28-.83.34-1.25.6-.78.67-1.2.08-.86.15-1.28-.06-.88.01-1.3-.05-.88.02-1.3.29-.82.37-1.24-.85-1.04-.77-1.46,1.12-.66,1.2-1.08-.41-.97-.33-1.39.93-.69,1.02-1.11.14-.85.24-1.27-.23-.94-.14-1.36-.14-.93-.04-1.34.78-.7.89-1.11-.07-.91.04-1.32.82-.67.94-1.08-.93-1.16-.81-1.57.66-.72.78-1.12-.04-.92.08-1.33.13-.88.26-1.28.86-.64.99-1.04c.14-.42-.08-.95.06-1.34.14-.42,0-.93.14-1.32.15-.42,1.41-.41,1.55-.8.16-.42-.09-.97.06-1.35.16-.42-.31-1.08-.16-1.46.17-.42,1.14-.48,1.3-.86.18-.42.64-.68.8-1.04.19-.43.34-.82.51-1.16.22-.45-.67-1.37-.51-1.69.39-.75,1.24-.79,1.24-.79.13-.22-.19-.93.13-1.44.2-.31,1.46-.02,1.73-.43.21-.33.04-.95.3-1.34.22-.34-.06-1.05.19-1.42.23-.34.98-.35,1.23-.72.23-.34.75-.5,1.01-.87.24-.34.24-.86.5-1.23.24-.34.08-.99.34-1.35s.66-.57.92-.93.07-1.01.33-1.36,1.45.02,1.72-.33-.12-1.17.15-1.51.54-.67.81-1.01,1.26-.1,1.53-.44.61-.6.88-.94-.15-1.23.12-1.56.34-.83.62-1.17,1.05-.24,1.33-.57.78-.46,1.06-.79.44-.75.73-1.08-.2-1.32.09-1.65,1.18-.1,1.47-.42.05-1.12.34-1.43,1.38.11,1.68-.21.48-.72.78-1.03.42-.79.72-1.1.78-.43,1.09-.74.71-.5,1.02-.8.66-.55.97-.85-.28-1.51.03-1.81.56-.67.87-.96,1.3.12,1.62-.17.34-.89.66-1.19.95-.23,1.27-.52.43-.81.75-1.1.7-.51,1.03-.79.4-.86.73-1.14,1.09-.04,1.42-.32.05-1.3.39-1.57.99-.15,1.33-.42.6-.64.94-.9.85-.31,1.2-.57.42-.88.77-1.14.83-.34,1.18-.59.68-.54,1.03-.79.48-.83.84-1.08.72-.5,1.08-.74.89-.24,1.25-.47,1.08.08,1.44-.15.31-1.14.68-1.37,1.33.54,1.7.32.37-1.07.75-1.28.65-.61,1.03-.81.88-.19,1.27-.39,1.03.11,1.41-.09.38-1.16.77-1.35.75-.45,1.14-.63,1.03.17,1.42-.01.91-.06,1.31-.23.53-.97.92-1.13,1.07.34,1.47.19.42-1.31.83-1.46,1.02.26,1.42.12.7-.62,1.11-.76,1.06.47,1.47.35.76-.45,1.18-.57.74-.55,1.16-.66.93.18,1.35.08.89.07,1.32-.02.75-.6,1.17-.69.86-.07,1.29-.15.89.12,1.31.05.71-1.09,1.14-1.14.95.64,1.38.6.85-.08,1.28-.12.86.05,1.29.02.85,0,1.29-.01.84-.73,1.27-.74.87-.26,1.3-.26.85,1,1.28,1.01.9-1.1,1.34-1.08.85.4,1.28.43.9-.3,1.33-.26.75,1.1,1.18,1.15.82.27,1.25.33,1.02-.97,1.45-.9.77.65,1.2.73c.42.08.91-.14,1.33-.06s.73.67,1.15.77,1.02-.55,1.44-.44.82.32,1.23.44.78.41,1.19.54.78.4,1.19.53.93-.06,1.34.08.42,1.35.82,1.5,1.09-.46,1.49-.3.81.29,1.21.46.58.83.97,1,.86.17,1.25.35.97-.03,1.36.16.5.91.89,1.1.96.02,1.34.23.4,1.03.78,1.25,1.07-.14,1.44.08.85.26,1.22.48.37,1.03.73,1.26.89.2,1.25.44.84.3,1.19.54.84.31,1.19.56.51.76.85,1.02.39.89.73,1.16.75.43,1.08.7.57.65.9.92,1.01.15,1.33.43.82.38,1.14.67.32.92.63,1.21.91.3,1.22.6.32.9.62,1.21.17,1.02.46,1.33.97.26,1.26.58.96.3,1.25.62-.15,1.27.12,1.59,1.32.02,1.59.35.72.54.99.88-.06,1.14.19,1.48.96.36,1.22.71.04,1.03.28,1.38.36.79.6,1.15.38.77.61,1.13,1.12.31,1.34.68-.04,1.03.18,1.4-.01.98.2,1.36,1.59.12,1.79.49c.2.38-.72,1.34-.53,1.73s1.38.29,1.57.67-.24,1.07-.06,1.46.27.82.44,1.22,1.01.52,1.17.92.14.88.29,1.28-.59,1.13-.44,1.54,1.53.39,1.67.8-.59,1.1-.47,1.51,1.07.59,1.19,1-.51,1.04-.41,1.46-.08.9.02,1.32.26.82.35,1.24.28.82.36,1.24.58.77.65,1.19-.41.94-.34,1.36.72.77.78,1.19.47.82.52,1.25-.31.91-.27,1.34-.58.91-.55,1.34,1.08.8,1.11,1.23-.81.9-.79,1.33-.29.86-.28,1.29.65.85.65,1.28-.63.85-.64,1.28.43.87.41,1.3.3.88.27,1.31-.07.86-.1,1.29-.48.83-.52,1.26.15.88.11,1.31-.04.86-.09,1.29-.08.86-.14,1.29-.46.81-.52,1.23-.12.85-.19,1.28.42.95.35,1.37-1.12.66-1.2,1.09.26.93.17,1.35-.63.74-.72,1.16.66,1.04.56,1.46-1.07.62-1.17,1.04.93,1.13.81,1.55-.3.82-.42,1.23-.09.88-.21,1.29-1.34.5-1.47.91.78,1.15.64,1.56-.42.78-.56,1.18-.11.88-.25,1.29-.34.8-.49,1.21-.2.85-.35,1.25-1.19.47-1.34.87.07.95-.09,1.35.22,1.03.06,1.42-.66.67-.83,1.06-.03.93-.2,1.33-.91.55-1.08.94-.49.73-.67,1.11.32,1.11.14,1.49-.69.64-.87,1.02-.44.76-.63,1.14-.52.71-.71,1.09,0,.98-.21,1.35-1.41.23-1.61.61-.23.86-.43,1.23-.56.68-.77,1.05.28,1.16.07,1.52c-.22.38,0,1.01-.22,1.37-.22.38-.72.6-.93.95-.23.38-1.13.34-1.34.69-.24.39-.23.9-.44,1.24-.24.39-.12.97-.34,1.31-.25.4-1.11.36-1.32.68-.28.42.15,1.22-.04,1.51-.24.36-.38.79-.62,1.15s-1,.36-1.25.72-.38.79-.63,1.14-.78.5-1.04.85-.66.58-.92.93.02,1.11-.24,1.45-1.07.26-1.34.59-.17.97-.44,1.31-.32.86-.6,1.19-1.18.13-1.46.46-.03,1.12-.32,1.45-.5.71-.8,1.03-.68.55-.98.87-.34.88-.64,1.19-.86.38-1.16.68-.83.39-1.14.69-.2,1.04-.51,1.34-1.37-.19-1.69.1.17,1.46-.15,1.75-1.37-.23-1.7.05-.75.45-1.07.73-.63.58-.96.86-.64.58-.97.85-.24,1.08-.57,1.35-.45.84-.79,1.1-.86.31-1.2.58-.89.26-1.24.52-.37.96-.72,1.21-.84.31-1.2.56-.56.72-.91.97-.83.32-1.19.56-1.23-.29-1.59-.06-.34,1.06-.71,1.29-.58.71-.95.93-.83.31-1.2.53-.75.43-1.12.65-.64.63-1.01.84-1.06-.12-1.44.09-.59.72-.97.92-1.03-.1-1.41.1-.27,1.35-.65,1.55-.79.37-1.17.57-.69.56-1.08.75-1.1-.26-1.48-.08-.76.42-1.15.6-.56.86-.96,1.04-.86.21-1.25.39-.83.27-1.23.44-.94.02-1.33.19-.84.24-1.24.4-.82.28-1.22.44-.57.91-.97,1.06-1.12-.51-1.52-.35-.42,1.34-.82,1.49-1.26-.92-1.66-.77-.53,1.09-.94,1.23-.84.24-1.25.38-.7.66-1.1.79-.9.06-1.3.19-.81.3-1.22.43-1.15-.77-1.56-.64-.5,1.29-.91,1.42-.83.25-1.24.38-1.02-.37-1.43-.25-.94-.13-1.35-.01-.65.87-1.05.98-.73.6-1.13.71-1.13-.79-1.53-.67c-.4.12-.54,1.21-.96,1.32s-.92-.15-1.34-.03-.68.74-1.1.84-1.01-.51-1.43-.4-.83.18-1.25.28-.72.63-1.14.73-.72.68-1.14.77-.97-.45-1.4-.35-.73.66-1.16.74-1-.61-1.42-.53-.85.08-1.27.16-.81.27-1.24.35-.73.74-1.15.81-.87-.05-1.3.03-.87-.03-1.29.04-.88-.1-1.31-.04-.82.29-1.25.36-.75.79-1.18.85-1-1.07-1.43-1.02-.68,1.4-1.11,1.45-.99-1.12-1.42-1.07-.77.83-1.2.88-.87-.15-1.3-.11-.83.31-1.26.35-.91-.39-1.34-.36Z"/><path class="uuid-5f8d049a-5de3-4fb3-9421-a70f32b6b942" d="m106.34,293.31c-.18.35-1.47.38-1.71.78-.21.35.2,1.11-.06,1.48-.24.34-.66.57-.94.92-.26.33-.79.42-1.09.74s-.04,1.2-.38,1.49-1.16-.09-1.52.16-.61.59-1,.8-.52.92-.93,1.08c-.27.11-.81-.07-1.35.07-.35.09-.86-.51-1.34-.45-.38.05-.7,1.44-1.16,1.45-.39.01-.81-1.19-1.26-1.22-.4-.02-.85.45-1.3.39-.4-.05-.78-.33-1.21-.42-.4-.08-.72-.46-1.15-.57-.39-.11-1.01.51-1.43.37-.39-.13-.87-.1-1.28-.26-.38-.15-.44-1.15-.84-1.32-.38-.16-.89-.04-1.28-.23-.37-.18-1.01.14-1.4-.06-.37-.19-.38-1.08-.76-1.29-.38-.21-.61-.65-.99-.86s-.77-.37-1.14-.59-1.08.14-1.45-.09-.74-.44-1.1-.67-.91-.17-1.27-.41-.76-.43-1.11-.67-.69-.53-1.04-.77-.72-.49-1.07-.73-.7-.51-1.04-.77-.82-.35-1.16-.61-.64-.59-.98-.86-.07-1.31-.4-1.58-.63-.59-.96-.86-.67-.53-1-.81-1.27.17-1.6-.11-.59-.64-.91-.92-.78-.43-1.1-.71-.51-.73-.82-1.02,0-1.26-.31-1.55-.75-.46-1.06-.75-.83-.38-1.13-.68-.99-.23-1.29-.54-.35-.87-.65-1.17-.23-.97-.53-1.28-.72-.5-1.01-.81-1.23-.05-1.51-.37-.31-.88-.6-1.2.22-1.33-.06-1.66-1.04-.24-1.31-.56-.36-.82-.63-1.15-1.27-.08-1.53-.41.22-1.28-.05-1.61-1.11-.23-1.37-.56-.51-.7-.76-1.04-.76-.52-1.01-.86.42-1.38.18-1.73-.59-.64-.83-.98-.39-.78-.63-1.13-.57-.66-.8-1c-.25-.37-1.18-.26-1.41-.61-.24-.37.08-1.09-.15-1.44-.24-.38-.38-.79-.6-1.14-.24-.38-1.38-.18-1.59-.53-.24-.39.16-1.13-.04-1.47-.24-.4-.86-.53-1.06-.87-.25-.43-.29-.9-.46-1.21-.4-.73.05-.75-.24-1.32-.17-.34-.05-.88-.27-1.31-.18-.36-1.32-.28-1.52-.69-.18-.37.52-1.18.32-1.59-.18-.37-1.41-.27-1.6-.67-.18-.38-.29-.81-.47-1.21-.18-.38.23-1.04.05-1.45-.17-.38-.33-.78-.51-1.19s-.95-.52-1.13-.92.13-.99-.04-1.4-.26-.82-.43-1.23-.43-.75-.59-1.16-.46-.74-.62-1.15-.17-.86-.33-1.26-.24-.83-.4-1.24.4-1.07.25-1.48-.3-.8-.45-1.21-1.21-.48-1.35-.89-.08-.89-.22-1.3.03-.92-.11-1.33-.4-.77-.53-1.18-.7-.68-.84-1.09-.19-.84-.32-1.26,0-.9-.12-1.32-.28-.82-.4-1.23.13-.93.02-1.35-.29-.81-.4-1.23.11-.92,0-1.34-1.44-.52-1.55-.95.78-1.08.68-1.5-.14-.85-.24-1.27-1.03-.65-1.12-1.08-.06-.88-.14-1.3.79-1.04.71-1.47-.98-.69-1.06-1.12.19-.91.11-1.34.35-.93.28-1.36-1.47-.64-1.53-1.07.33-.93.27-1.36-.04-.87-.1-1.3.08-.88.03-1.31-.54-.81-.59-1.24-.08-.87-.12-1.3-.01-.87-.05-1.3.55-.91.52-1.34,0-.86-.02-1.3.14-.87.12-1.3-.47-.84-.48-1.28.52-.87.51-1.31-.33-.86-.33-1.29.19-.86.19-1.29-.92-.88-.91-1.32-.29-.88-.27-1.32.63-.84.65-1.27.47-.84.5-1.27.31-.84.35-1.27-.79-.94-.75-1.37.25-.85.3-1.28.25-.84.31-1.27-.37-.93-.3-1.36.81-.75.88-1.18.01-.87.09-1.3-.56-1-.48-1.42,1.21-.63,1.3-1.06-.65-1.04-.54-1.46.57-.76.67-1.18-.31-.99-.19-1.4,1.14-.58,1.27-.99.01-.9.14-1.31.61-.71.75-1.12.13-.86.28-1.27-.06-.94.09-1.35.43-.76.59-1.17.95-.54,1.12-.94-.1-.98.07-1.38.51-.71.7-1.11-.31-1.11-.12-1.5,1.26-.33,1.46-.72-.32-1.15-.12-1.53.06-.97.27-1.34.36-.81.58-1.18,1.02-.41,1.25-.78c.22-.36.47-.71.71-1.09.23-.35.81-.49,1.06-.86s.42-.74.67-1.11.42-.75.67-1.11-.13-1.15.12-1.51.6-.63.86-.98.58-.64.85-.99,1.27-.1,1.54-.44-.41-1.43-.13-1.77,1.39.03,1.67-.31.3-.87.58-1.2.36-.83.65-1.15.53-.69.82-1.01.81-.43,1.1-.75.07-1.13.37-1.45.55-.68.86-.99,1.37.15,1.68-.15.5-.72.82-1.02.61-.61.93-.9.77-.43,1.1-.71-.04-1.38.29-1.66.81-.39,1.15-.67.76-.45,1.1-.72.68-.55,1.03-.81,1.19.17,1.54-.08.42-.91.78-1.15.94-.13,1.31-.37.22-1.29.6-1.51.92-.17,1.29-.39.57-.8.95-1,1.27.6,1.66.41.73-.45,1.13-.62.8-.3,1.2-.46.83-.21,1.24-.35.63-.85,1.04-.97.96.22,1.38.11.81-.26,1.23-.36.85-.07,1.28-.14.75-.91,1.18-.96.94.96,1.38.93.83-.06,1.26-.06.89-1.27,1.32-1.25.89.15,1.32.19.82.5,1.25.57.85.2,1.27.29.83.23,1.25.35c.42.12.72.59,1.13.73s.88.1,1.28.26.58.79.97.98.74.38,1.13.58.89.14,1.26.36,1.25-.33,1.61-.09.61.69.95.94.21,1.14.55,1.41,1.21-.08,1.54.21.04,1.23.35,1.53.66.55.96.86.33.85.62,1.18.84.4,1.12.73,1.27.1,1.54.45.1,1.03.35,1.38.6.64.85,1-.23,1.18,0,1.55.63.61.86.98.43.74.64,1.12.61.65.82,1.03,1.1.41,1.29.79-.62,1.28-.44,1.67.58.68.76,1.07,1.1.47,1.27.86-.57,1.19-.41,1.59,1.27.44,1.43.83c.16.42.19.88.33,1.27.15.42-.22,1.02-.08,1.41.15.43.21.86.33,1.25.14.44,1.27.56,1.38.94.14.47-.99,1.25-.9,1.61.16.58.97.86,1.03,1.11-.1.41-.49.79-.59,1.21s-.53.76-.63,1.18.4.97.3,1.39-.54.76-.64,1.18.05.89-.05,1.31.35.95.26,1.37-.09.85-.18,1.28-.52.76-.61,1.19-.18.84-.27,1.26,0,.87-.08,1.3-.98.68-1.06,1.11.34.94.26,1.36-.65.75-.73,1.18.79,1.02.72,1.44-.76.74-.83,1.16.21.9.13,1.33-1.16.67-1.23,1.09-.18.84-.25,1.27.68.98.62,1.4.02.87-.04,1.29-.11.85-.18,1.27-.99.72-1.05,1.15.2.9.14,1.32.45.93.39,1.36-.86.75-.92,1.18.72.96.67,1.39-.95.74-1.01,1.17.78.96.72,1.39-.18.84-.23,1.27.06.87.01,1.3-.68.79-.73,1.22-.19.85-.23,1.27.63.93.59,1.36-.7.79-.74,1.22-.36.83-.4,1.26,0,.86-.03,1.29.85.93.82,1.36-1.27.76-1.3,1.19.53.9.49,1.33.29.88.26,1.31-.65.82-.68,1.25.79.91.77,1.34-1.32.78-1.35,1.22.35.88.33,1.32-.38.84-.4,1.27.12.87.1,1.3.68.89.66,1.32-1.05.82-1.06,1.26,1.24.9,1.22,1.34-.55.84-.57,1.27-.53.85-.54,1.28.56.88.56,1.31-.31.86-.32,1.29-.34.86-.34,1.3-.07.87-.07,1.31c0,.43-.14.86-.14,1.29s.99.86,1,1.28-.43.86-.43,1.29-.33.86-.33,1.29-.05.86-.04,1.29,0,.86,0,1.29.96.84.97,1.26.03.85.04,1.28-.43.87-.41,1.3.18.85.2,1.28.12.85.14,1.28-.85.9-.83,1.32.7.83.72,1.25-.23.87-.21,1.3.04.86.06,1.29.46.83.49,1.26.55.82.58,1.25-1.11.94-1.08,1.36.08.86.11,1.28.13.85.16,1.28.82.79.86,1.22-.15.87-.11,1.3.33.83.37,1.26-.43.9-.39,1.33.91.77.95,1.2-.44.9-.39,1.33.18.84.23,1.27-.65.94-.61,1.36.83.77.88,1.19.41.81.46,1.23-.21.89-.16,1.31-.72.96-.66,1.38.7.77.75,1.19.08.85.13,1.27-.29.91-.23,1.33.98.72,1.04,1.14-.46.94-.4,1.36.85.74.91,1.16.16.84.23,1.26-.89,1.01-.82,1.43.23.83.3,1.25.43.8.5,1.21-.36.93-.28,1.35.33.81.4,1.23.66.75.74,1.16.41.79.49,1.21-.18.91-.1,1.32.8.71.89,1.13-.8,1.03-.71,1.44.16.84.24,1.25.88.69.97,1.1-.46.97-.37,1.38,1.12.82,1.21,1.23Z"/><path class="uuid-5f8d049a-5de3-4fb3-9421-a70f32b6b942" d="m142.07,307.59c0,.4-.55.9-.89,1.27-.26.28-1.07-.16-1.5.09-.34.2-.6.47-1.04.65-.38.16-.57.85-1.01.99-.4.12-.9-.09-1.35.02-.41.1-.79.35-1.23.43-.42.08-.79.46-1.24.53s-.87.08-1.31.13-.85.27-1.3.31-.85.44-1.3.46-.91-.77-1.36-.76-.87.26-1.31.26-.89.43-1.33.42-.83-1.23-1.26-1.25-.9.39-1.33.36-.95.54-1.37.49-.78-.85-1.2-.91c-.45-.07-.89.02-1.31-.06-.44-.09-.9-.05-1.3-.15-.44-.11-1.05.36-1.44.23-.44-.14-.51-1.25-.89-1.4-.44-.18-1.26.47-1.6.27-.43-.25-.5-.97-.76-1.25-.34-.37-1.12-.74-1.12-1.14s.41-1.12.75-1.49c.26-.28.93-.26,1.36-.51.34-.2.5-.98.94-1.16.38-.16,1.06.37,1.5.23.4-.12.93.23,1.37.12.41-.1.59-1.33,1.03-1.41.42-.08.92.18,1.37.12s.9.14,1.34.09.82-.62,1.26-.66.87-.21,1.32-.23.91.77,1.36.76.87-.67,1.31-.67.87,1.08,1.3,1.09.87-.13,1.3-.11.94-.82,1.37-.79.76,1.27,1.18,1.32.96-.55,1.38-.49c.45.07.88.15,1.29.23.44.09.87.19,1.28.29.44.11,1.01-.23,1.4-.11.44.14.6,1,.98,1.15.44.18,1.09-.15,1.43.05.43.25.4.98.66,1.25.34.37,1.24.54,1.24.94Z"/><path class="uuid-93ada9b3-1c7b-4576-adf4-56e2fe5ddc06" d="m259.75,156.97c0,.43-1.1.81-1.14,1.23s.87,1,.78,1.42-1.12.6-1.25,1.01.66,1.15.49,1.55-.43.79-.63,1.18-.36.83-.59,1.2-1.4.06-1.67.4-.41.72-.7,1.05-.42.75-.73,1.05-.5.7-.83.98-.17,1.19-.52,1.45-1.38-.45-1.74-.21-.64.55-1.02.77-.78.31-1.17.51-.48.96-.87,1.14-.81.31-1.21.47-.61.86-1.02,1-.94-.04-1.36.08-.88.1-1.3.2-.95-.33-1.38-.24-.73.8-1.15.87-.96-.7-1.39-.65-.8.48-1.23.51-.83.52-1.27.54-.87.2-1.31.2-.87-.33-1.3-.34-.86-.17-1.29-.21-.8-.57-1.23-.62-.89.23-1.32.16-.98.49-1.4.41-.82-.39-1.23-.5-.71-.69-1.12-.81-.9-.03-1.3-.17-.55-.97-.94-1.13-1.12.46-1.51.28-.86-.25-1.24-.44-.49-.91-.86-1.13-.49-.8-.84-1.04-1.25.29-1.59.03-.89-.31-1.22-.59-.14-1.15-.45-1.44-.56-.64-.84-.96-.52-.66-.78-1-.95-.39-1.18-.75-.06-.97-.26-1.35-.2-.83-.36-1.23-.04-.85-.17-1.26-.31-.74-.39-1.17-1.22-.68-1.26-1.11-.11-.9-.11-1.34,1.13-.81,1.17-1.23-.49-.92-.4-1.34.08-.88.21-1.29.88-.58,1.05-.97.43-.69.64-1.07-.66-1.38-.42-1.75.78-.55,1.04-.89.69-.56.98-.88.33-.9.64-1.2.52-.76.85-1.04.81-.41,1.16-.68,1.11.07,1.47-.17.36-1.05.73-1.27.76-.44,1.15-.64.8-.38,1.19-.56.8-.36,1.21-.52.89-.11,1.3-.26.71-.66,1.13-.78.85-.26,1.27-.36,1.02.58,1.45.5.9.25,1.33.18.79-.43,1.22-.49.85.05,1.29.02.85.08,1.28.06.84-.37,1.27-.37.85.16,1.28.17.9-.57,1.32-.53.93-.39,1.35-.34.86.26,1.29.33.83.38,1.25.47.76.6,1.17.7.83.23,1.24.35.94-.1,1.35.04.96-.05,1.36.11.48,1.1.87,1.28.89.14,1.27.33.98.04,1.35.25.3,1.16.65,1.4,1.18-.17,1.53.09-.03,1.41.29,1.69,1.52-.39,1.83-.09-.15,1.36.13,1.67,1.32.04,1.58.38-.22,1.22,0,1.58,1.02.4,1.22.78.3.84.46,1.23.77.68.89,1.09.32.88.4,1.3-.57.99-.53,1.42.62.85.62,1.29Z"/><path class="uuid-93ada9b3-1c7b-4576-adf4-56e2fe5ddc06" d="m207.92,176.66c.15.42.42.73.51,1.16s.76.77.79,1.21-.34.89-.36,1.33-.09.85-.17,1.29-.06.87-.19,1.3-.47.74-.64,1.15.47,1.21.27,1.6-.94.5-1.18.87-.55.69-.82,1.04-.99.27-1.3.6-.07,1.14-.4,1.45-.44.87-.79,1.14-.84.39-1.21.64-.77.46-1.15.69-.6.79-1,.99-.94.14-1.35.32-1.11-.43-1.53-.28-.57,1.12-.99,1.24-1.04-.51-1.47-.42-.81.4-1.24.47-.9-.3-1.34-.27-.85.33-1.28.33-.91.63-1.35.6-.87-.4-1.3-.46-.74-.79-1.16-.89-.96.24-1.37.11-.74-.5-1.14-.67-.89-.15-1.27-.36-.45-.89-.81-1.13-1.48.46-1.81.18.03-1.31-.26-1.64-.41-.73-.65-1.09-.35-.72-.55-1.12-.51-.66-.66-1.07-.87-.66-.96-1.08-.57-.86-.6-1.3.67-.92.7-1.36-.16-.9-.08-1.34.79-.69.91-1.12-.17-.96,0-1.37-.1-1.04.11-1.43.67-.66.91-1.03,1.08-.29,1.35-.64.58-.6.88-.92.13-1.08.45-1.38,1.02-.13,1.37-.4.64-.55,1.01-.8.35-1.06.73-1.28.98-.03,1.37-.23.83-.24,1.24-.42.79-.31,1.21-.46.79-.35,1.21-.47.69-.91,1.11-1,.88-.27,1.31-.34.93.13,1.36.1.9.06,1.33.05.93-.51,1.36-.48.8,1,1.23,1.06,1.03-.64,1.45-.54.75.69,1.17.82.69.63,1.09.8,1.1-.25,1.49-.05.75.53,1.11.78.54.77.87,1.05,1.1.19,1.39.51.57.76.82,1.12.26.92.46,1.32-.36,1.08-.21,1.5Z"/><path class="uuid-93ada9b3-1c7b-4576-adf4-56e2fe5ddc06" d="m82.78,138.07c.3.32.56.66.81,1.01s-.06,1.04.16,1.41.54.62.72,1.01.34.74.49,1.15,1.31.49,1.42.91-.32.98-.24,1.4-.59.92-.55,1.35,1.3.78,1.31,1.22-1.09.84-1.11,1.28.1.84.05,1.27-.31.79-.39,1.22.28.92.18,1.34-.63.7-.76,1.11-.27.78-.42,1.19.03.91-.13,1.31-.42.74-.6,1.13-.58.65-.78,1.03-.28.8-.5,1.17.5,1.33.27,1.7-.57.69-.82,1.04-.46.76-.73,1.11-.9.4-1.18.73-.52.7-.81,1.02-.61.62-.92.93-1.26-.07-1.57.22-.08,1.2-.41,1.48-.78.42-1.12.68-.98.13-1.32.38-.69.48-1.05.72-.33,1.08-.7,1.3-1.07-.13-1.44.08-.79.31-1.18.5-.33,1.34-.72,1.51-.9.15-1.3.3-.72.64-1.12.77-1.21-1.02-1.62-.9-.66.88-1.07.97-.79.54-1.21.61-.94-.44-1.36-.4-.84.48-1.26.5-.89.19-1.31.18-.82-.83-1.24-.87-.89.25-1.31.17-.68-.81-1.09-.92-1.15.85-1.55.71-.6-.85-.99-1.03-.9-.12-1.27-.34-.61-.63-.96-.89-.62-.58-.94-.87-.29-.87-.59-1.18-.6-.55-.86-.89-1.16-.24-1.38-.61.22-1.08.03-1.47-.7-.61-.85-1.01.05-.89-.06-1.31.04-.84-.03-1.27-1.19-.7-1.23-1.13.27-.89.26-1.33.21-.85.24-1.29.4-.81.45-1.24.18-.81.26-1.23.14-.81.24-1.24.1-.83.23-1.25-.54-1.08-.39-1.49,1.04-.52,1.21-.92.05-.9.24-1.3-.02-.98.18-1.36,1.36-.21,1.58-.58.11-.92.35-1.28-.38-1.31-.13-1.67,1.04-.32,1.3-.66.85-.41,1.13-.74.57-.63.86-.95.53-.66.84-.97.77-.42,1.09-.72.12-1.16.44-1.44.85-.34,1.18-.6.36-.97.71-1.22,1.39.48,1.74.25.1-1.45.47-1.67,1.02.02,1.4-.18.62-.7,1-.89.75-.47,1.14-.64.78-.44,1.17-.59.77-.5,1.18-.63,1.15.8,1.56.69.57-1.33.99-1.42.99.45,1.41.38.91.38,1.34.34.79-1.16,1.22-1.18.91-.11,1.34-.1.91.05,1.34.09.81.7,1.23.77.73.66,1.14.77.83.12,1.24.26,1.05-.31,1.44-.13.53.88.9,1.09.91.16,1.26.41.57.67.9.95.7.51.99.83Z"/><path class="uuid-93ada9b3-1c7b-4576-adf4-56e2fe5ddc06" d="m43.12,185.22c.44-.03.84.33,1.28.36s.85-.1,1.28,0,.74.43,1.16.57,1.29-.83,1.69-.63.56.9.93,1.14.36.98.71,1.25.53.64.85.95,1.08.13,1.38.47.45.76.71,1.11.69.59.92.97-.07,1.03.14,1.42,1.22.39,1.39.8.21.89.35,1.31-.64,1.1-.53,1.53.32.78.4,1.22.4.8.46,1.24-.2.87-.17,1.32.37.85.37,1.28.42.89.39,1.33-.77.8-.83,1.23-.14.84-.22,1.26.41.99.29,1.41-.42.8-.56,1.21-.48.75-.65,1.15.2,1.09-.01,1.47-.29.9-.53,1.26-1.02.38-1.29.72-.82.43-1.12.74.08,1.4-.26,1.68-.75.59-1.12.83-1.32-.52-1.71-.33-.76.28-1.18.43-.52,1.45-.95,1.54-1.04-1.2-1.49-1.17-.8.08-1.23.05-1,.95-1.43.86-.69-.85-1.11-.99-.83-.21-1.23-.41-.95-.08-1.33-.32-.98-.19-1.33-.46-.7-.61-1.02-.92-.44-.84-.73-1.17-.24-.94-.5-1.3-.51-.7-.74-1.08-.44-.75-.64-1.14-1-.51-1.18-.92.26-1.05.11-1.47-.31-.82-.43-1.24-.47-.79-.56-1.23.28-.93.22-1.37.16-.87.13-1.32-.11-.85-.11-1.29-.36-.88-.33-1.31-.67-.97-.61-1.4.66-.82.74-1.24-.14-.96-.03-1.38,1.25-.53,1.39-.94-.68-1.22-.51-1.62,1.43-.27,1.64-.66-.04-1.02.2-1.38.88-.41,1.16-.75.58-.58.88-.9.53-.63.86-.91.16-1.24.52-1.48.82-.39,1.21-.58,1.02.2,1.43.06.77-.31,1.2-.4.8-.39,1.24-.41Z"/><path class="uuid-53bd583c-67f0-42cd-8aaa-7a8fa49fceb2" d="m313.75,58.22c-.19.39-.25.8-.48,1.17s.18,1.19-.08,1.53-1.38-.06-1.68.25.03,1.26-.29,1.54-.7.55-1.05.8-1.04-.01-1.41.21-.49.89-.88,1.08-.79.37-1.19.53-.99-.24-1.41-.11-.74.47-1.16.57-.83.16-1.26.24-.79.5-1.22.56-.91-.63-1.35-.6-.81.68-1.25.69-.86-.06-1.29-.08-.9.51-1.33.48-.85-.36-1.28-.42-.79-.55-1.22-.63-.88.05-1.31-.04-.8-.35-1.22-.46-.72-.57-1.13-.7-1.07.51-1.48.37-.91-.08-1.31-.24-.78-.42-1.18-.6-.9-.15-1.29-.34-.36-1.21-.73-1.42-.66-.56-1.03-.78-1.13.18-1.49-.06-.74-.48-1.09-.73-.31-1.04-.65-1.3-1.21.11-1.54-.16-.46-.81-.77-1.11-.23-1-.53-1.31-.67-.54-.96-.86-1.28-.06-1.55-.39.5-1.48.24-1.83-1.27-.16-1.5-.52-.17-.92-.38-1.29-1.04-.44-1.24-.82-.44-.8-.61-1.19.02-.98-.12-1.38-.32-.83-.43-1.24-.01-.91-.09-1.32-.04-.88-.09-1.3-.39-.85-.41-1.28.45-.87.47-1.29-.18-.89-.11-1.31.2-.85.31-1.26.78-.63.93-1.04-.6-1.2-.41-1.58.5-.77.72-1.13.89-.46,1.15-.8.7-.52.99-.83.86-.28,1.18-.57-.14-1.56.21-1.81.99-.12,1.36-.35.78-.38,1.17-.57,1.08.37,1.49.21.74-.34,1.15-.48.55-1.16.97-1.27,1.04.77,1.46.69.73-.74,1.16-.8.83-.34,1.26-.37.86-.45,1.29-.46.88.07,1.32.08.83.75,1.26.78.85.06,1.28.12.83.2,1.26.28.97-.46,1.39-.37.62,1.06,1.04,1.17,1.07-.63,1.48-.5.61.9,1.02,1.04.98-.18,1.39-.02.56.87.96,1.04.83.22,1.22.41,1.15-.33,1.53-.13.15,1.48.52,1.7,1.04-.06,1.4.17,1.04.03,1.39.28.78.44,1.12.7.09,1.27.42,1.54.54.67.85.96.66.53.96.84,1.26,0,1.55.32.5.74.77,1.07-.05,1.13.2,1.48.43.73.67,1.08.48.69.7,1.06,1.32.28,1.51.66-.05,1,.12,1.4-.11.96.03,1.37,1.13.56,1.25.97-.1.94-.01,1.36,0,.89.04,1.31-.62.88-.61,1.31.33.82.3,1.25.73.95.66,1.38-1.23.61-1.34,1.03-.21.77-.36,1.17-.13.82-.32,1.21Z"/><path class="uuid-b68948ca-70d7-4fb2-872d-d42540837df8" d="m98.45,32.13c.12.42-.2.95-.12,1.37s-.14.87-.1,1.3.43.83.42,1.27-.49.81-.53,1.24.75.99.67,1.42-1.05.63-1.17,1.04-.54.68-.7,1.08.35,1.05.16,1.45-.68.6-.89.98.37,1.24.13,1.6-.83.5-1.09.85-.76.49-1.04.83-.66.55-.96.87-.44.76-.76,1.06-.53.69-.86.98-.7.51-1.04.78-.37.97-.72,1.22-1.42-.56-1.78-.33-.66.51-1.03.73-.11,1.56-.5,1.77-1.01-.06-1.4.13-.93.03-1.33.2-.59.84-1,.99-.98-.16-1.39-.02-.86.12-1.27.25-.88,0-1.3.1-.81.25-1.23.34-.71.86-1.13.93-.89-.03-1.31.02-.81.73-1.24.77-.93-.85-1.36-.83-.86-.03-1.28-.03-.89.72-1.31.7-.88-.15-1.3-.19-.86-.21-1.28-.27-.93.21-1.35.13-.65-1.1-1.06-1.2-1.1.69-1.51.56-.76-.55-1.16-.7-.88-.21-1.27-.38-.65-.69-1.03-.89-.59-.7-.95-.92-1.01-.06-1.35-.31-.51-.76-.84-1.04-.27-.94-.57-1.25-1.12-.14-1.39-.47-.63-.63-.87-.99.02-1.02-.18-1.4-1.04-.47-1.21-.87.73-1.15.61-1.57-1.23-.58-1.31-1,.05-.91.02-1.34-.04-.88-.03-1.31.26-.85.31-1.28-.32-.94-.23-1.36,1.14-.59,1.26-1.01-.32-.99-.17-1.4.91-.52,1.09-.91.32-.75.53-1.13.48-.66.72-1.03-.14-1.12.12-1.47.71-.53.99-.86.6-.6.9-.91.9-.29,1.21-.59.62-.54.95-.82.13-1.17.47-1.44.49-.8.84-1.05,1.14.15,1.51-.09.78-.34,1.15-.56.75-.38,1.13-.58.79-.29,1.18-.47.31-1.38.71-1.55.86-.21,1.27-.37,1.02.29,1.43.15.77-.39,1.19-.51.67-.87,1.08-.97.95.22,1.37.13.94.33,1.36.26.8-.4,1.23-.46.9.39,1.32.36.82-.36,1.25-.38.85-.82,1.28-.81.86.65,1.28.67.82.41,1.25.45.83.13,1.25.19.87-.12,1.29-.04.79.32,1.21.42.94-.21,1.35-.08.64.76,1.04.91.8.24,1.19.41,1.17-.44,1.55-.24.49.89.86,1.12.4.89.75,1.15.99.08,1.32.36.6.6.9.91.68.53.95.86.12.94.36,1.3.95.41,1.15.79-.04.95.12,1.35,1.06.54,1.18.95Z"/><path class="uuid-1821accb-2a20-45e5-b41b-72d481d9eece" d="m286.5,110.33c.24.22.7-.37,1.09,0,.28.26.9.24,1.25.57.29.28.08,1.11.41,1.43.29.29,1.12.07,1.44.39.29.29.07,1.11.38,1.43.29.3.81.4,1.11.72.29.3.9.33,1.2.65.28.31.42.77.72,1.1s.47.73.76,1.05.22.94.51,1.27.69.53.98.86.31.86.59,1.19,1.13.17,1.41.5.29.87.57,1.21.11,1.01.38,1.35.6.62.87.96.89.39,1.16.74.03,1.05.3,1.4.65.58.91.93.41.76.67,1.11.57.64.83.99.81.48,1.06.83.66.58.91.94-.03,1.06.21,1.42,1.09.3,1.33.66-.09,1.09.15,1.45,1.27.2,1.51.57-.13,1.1.1,1.47.56.67.78,1.03-.1,1.07.12,1.44.52.68.74,1.05.32.8.54,1.18,1.41.19,1.62.56.52.7.73,1.08,0,.98.21,1.36-.35,1.16-.15,1.54,1.08.4,1.28.79.21.86.41,1.25,0,.96.18,1.35,1.34.31,1.53.7-.29,1.09-.11,1.48.21.85.39,1.24.98.5,1.16.9-.01.95.16,1.34.88.57,1.05.97-.03.95.13,1.35.26.83.42,1.23-.22,1.01-.07,1.41.16.86.31,1.26.91.58,1.06.98.42.76.56,1.17-.41,1.04-.27,1.45.72.66.86,1.07.84.64.97,1.05-.6,1.08-.48,1.5.52.74.64,1.16.96.63,1.08,1.04-.72,1.09-.61,1.51.16.85.26,1.27,1.06.63,1.16,1.05-.19.93-.1,1.35,0,.88.1,1.3-.39.96-.3,1.38.56.76.64,1.19.27.83.34,1.25-.37.94-.3,1.36.32.82.38,1.24.75.76.81,1.19.62.79.67,1.22.19.85.24,1.28-.88.97-.84,1.4-.15.88-.11,1.31,1.08.77,1.11,1.2-.74.92-.7,1.35.13.85.16,1.28-.21.87-.19,1.3.73.83.74,1.26-.03.87-.02,1.3-.31.87-.31,1.3-.05.86-.05,1.3-.13.86-.14,1.29.38.87.37,1.3-.31.85-.32,1.29.92.9.9,1.34-.8.83-.82,1.26-.08.86-.11,1.29-.38.84-.41,1.27.1.87.06,1.31c-.04.43-.17.85-.22,1.28s.44.92.39,1.35-.42.82-.47,1.25-.17.85-.23,1.27-.29.83-.35,1.26-.33.82-.4,1.24.09.89.01,1.31-.19.84-.27,1.26.65,1.01.56,1.43-1.1.65-1.19,1.08-.21.83-.31,1.25.28.95.18,1.37-.08.87-.18,1.29-.1.87-.2,1.29-.55.75-.66,1.16-.73.69-.85,1.1.52,1.05.4,1.46.15.95.02,1.36-.67.7-.8,1.11-.12.87-.25,1.28-1.12.53-1.26.94.84,1.21.7,1.62-.42.77-.57,1.18-.97.56-1.13.96.18,1,.03,1.4-.91.56-1.08.96.73,1.24.56,1.64-.57.7-.74,1.1-.91.54-1.09.94.16,1.02-.02,1.42-1.13.42-1.32.81.31,1.11.12,1.5-.76.59-.96.97-.58.67-.78,1.05.15,1.05-.05,1.44-1.28.29-1.49.67-.23.85-.45,1.23-.34.79-.56,1.17-.37.78-.59,1.15-.38.78-.6,1.15-.18.9-.41,1.27-.55.68-.78,1.04-.17.92-.4,1.28-.22.89-.46,1.25-.73.56-.97.92-.97.38-1.21.74.16,1.16-.09,1.52-.45.75-.7,1.1-.58.65-.83,1-.79.49-1.05.84-.35.82-.62,1.16-.48.73-.74,1.07-.98.33-1.25.66-.43.76-.7,1.1-.46.74-.74,1.07-.6.63-.88.96-.41.79-.69,1.12-.33.86-.62,1.19-1.05.22-1.34.54-.82.41-1.12.73.05,1.23-.24,1.55-1.11.14-1.41.45-.39.83-.69,1.13-.6.62-.91.93-.95.27-1.26.57-.37.85-.69,1.15-.54.68-.86.98-.84.37-1.16.66-.7.52-1.02.8-.24,1.03-.56,1.31-1.21-.07-1.53.22-.72.48-1.05.76.08,1.44-.25,1.72-1.13,0-1.46.27-.84.34-1.17.61-.21,1.12-.55,1.39-1.22-.17-1.57.09-.16,1.22-.5,1.48-.64.59-.99.84-1.26-.27-1.61-.01-.16,1.26-.51,1.51-1.07-.03-1.43.22-.69.51-1.05.75-.36,1.01-.72,1.25-1.08-.06-1.44.17-.81.33-1.18.56-.81.32-1.18.55-.38,1.02-.75,1.24-.76.41-1.13.63-1.06-.09-1.43.13-.46.92-.84,1.13-.99,0-1.37.21-.44.98-.82,1.19-1.08-.18-1.46.02-.77.38-1.15.58-.43,1.05-.81,1.25-1.07-.21-1.46-.01-.48.96-.87,1.15-.91.1-1.3.29-.84.24-1.23.42-.43,1.14-.82,1.31-1.23-.64-1.63-.46-.63.71-1.03.88-.56.89-.96,1.05-.79.35-1.19.52-1.05-.3-1.45-.14-.56.93-.97,1.09-.75.46-1.16.62-.99-.18-1.4-.03-1.04-.33-1.44-.18-.56,1-.97,1.14-.76.46-1.17.6-1.13-.65-1.54-.52-.5,1.27-.91,1.4-.92-.04-1.33.09-1.03-.45-1.45-.33-.64.88-1.06,1-.96-.23-1.38-.11-.54,1.32-.96,1.43-1.03-.51-1.45-.4-.68.84-1.1.95-.84-.83-1.26-.73c.32-.13.52.05,1-.14.36-.15.74-.33,1.18-.52.37-.16.88-.05,1.3-.23.37-.16.74-.41,1.15-.59.38-.17.52-.89.92-1.08.38-.17,1.15.46,1.55.27.38-.18.84-.22,1.24-.41.38-.18.31-1.31.7-1.5s1.11.32,1.5.12.42-1.05.81-1.25,1.22.49,1.61.29.62-.67,1-.88.37-1.1.75-1.31.97,0,1.35-.22,1.17.32,1.55.1.1-1.53.48-1.75.88-.2,1.25-.42.57-.71.94-.93,1.31.49,1.68.26.62-.64.99-.87.67-.55,1.03-.79.34-1.04.71-1.28,1.13.16,1.49-.08.91-.2,1.26-.44.05-1.43.41-1.68.91-.2,1.26-.45,1.13.11,1.48-.15.42-.88.77-1.14.58-.66.93-.92.8-.37,1.14-.63.6-.63.94-.9.38-.9.72-1.17.7-.5,1.03-.77.88-.27,1.22-.55.43-.83.76-1.1.62-.6.95-.88.57-.64.9-.93,1.32.2,1.64-.08.47-.77.79-1.06.93-.26,1.25-.55.75-.47,1.07-.76-.26-1.54.06-1.83,1.49.31,1.8.01.25-.99.56-1.29.6-.62.91-.93.34-.88.64-1.19,1.22-.01,1.53-.32-.21-1.4.08-1.72,1.23-.02,1.53-.34.14-1.04.44-1.36.92-.33,1.21-.66,1.01-.27,1.29-.59-.2-1.32.09-1.65.84-.42,1.12-.75,0-1.12.28-1.46,1.16-.16,1.43-.5.19-.95.46-1.29.35-.82.61-1.16.97-.33,1.24-.68.4-.78.66-1.12.36-.8.62-1.15.63-.6.89-.95.19-.92.44-1.27,1.43-.05,1.67-.41-.4-1.32-.16-1.68,1.47-.05,1.71-.42.11-.97.34-1.33.67-.6.9-.97-.03-1.04.19-1.41.01-1,.24-1.37.73-.57.95-.94,1.18-.31,1.4-.68-.51-1.29-.29-1.67.82-.53,1.03-.91.38-.77.59-1.15.19-.88.39-1.26,1.26-.32,1.46-.7.25-.85.45-1.24,0-.97.19-1.36.59-.68.78-1.07-.38-1.13-.19-1.53.75-.6.93-1,1.11-.45,1.29-.85-.19-1.03-.02-1.43-.07-.96.1-1.37.7-.64.86-1.05.73-.64.89-1.04.32-.81.48-1.22-.26-1.03-.11-1.43.23-.84.38-1.25.66-.68.81-1.09.79-.65.93-1.07c.14-.41-.93-1.22-.79-1.63s1.44-.44,1.57-.85-.01-.91.11-1.33-.68-1.11-.56-1.52.7-.69.81-1.11.36-.79.47-1.21-.2-.95-.09-1.36.02-.88.12-1.3.61-.73.71-1.15.17-.84.26-1.26.41-.79.5-1.21-.09-.9,0-1.32.74-.73.82-1.15.38-.81.46-1.23.43-.8.51-1.23-.44-.96-.37-1.38.12-.86.19-1.28-.6-.96-.53-1.39,1.13-.71,1.19-1.14.08-.86.14-1.29-.81-.97-.76-1.4.94-.76.99-1.19.47-.82.51-1.25-.62-.93-.58-1.36.63-.82.67-1.25-.71-.92-.68-1.35-.2-.87-.18-1.3.07-.86.09-1.29,1.31-.81,1.32-1.24-.12-.87-.1-1.31-.83-.88-.82-1.32.17-.86.17-1.29-.51-.86-.51-1.29.55-.86.55-1.29-.04-.86-.04-1.29.1-.87.08-1.3-.64-.84-.66-1.27-.05-.86-.07-1.29.71-.9.68-1.33-.14-.86-.17-1.29-.31-.84-.34-1.27-.25-.84-.28-1.27.63-.93.59-1.35.12-.88.07-1.31-1.31-.72-1.36-1.15.19-.89.13-1.31-.35-.82-.41-1.25.89-1,.83-1.42-.81-.75-.88-1.17-.34-.82-.41-1.24.67-.99.59-1.41-1.13-.67-1.21-1.09.21-.91.13-1.34-.52-.77-.61-1.19.13-.9.05-1.32-.34-.81-.43-1.23.87-1.08.77-1.5-1.2-.61-1.3-1.03-.2-.84-.3-1.26.69-1.07.58-1.49-.56-.75-.68-1.17-.75-.69-.86-1.11-.01-.89-.13-1.31-.59-.73-.71-1.14.59-1.08.46-1.49-1.16-.54-1.29-.95.14-.95.01-1.36.47-1.07.34-1.47-1.09-.54-1.23-.95-.12-.87-.26-1.28-.16-.86-.31-1.26-.36-.79-.51-1.19-.11-.88-.26-1.28-.12-.88-.27-1.28-1.25-.44-1.41-.83.32-1.06.16-1.46-.06-.91-.23-1.31-.68-.65-.85-1.04.08-.98-.09-1.37-.79-.6-.96-.99-.37-.78-.55-1.17-.43-.75-.61-1.14.11-1.01-.07-1.39-1.12-.42-1.31-.8-.19-.86-.38-1.24.46-1.2.27-1.58-1.16-.38-1.35-.76-.3-.82-.5-1.19-.04-.96-.24-1.34-.6-.66-.81-1.03-.45-.74-.66-1.11-.96-.45-1.16-.82.13-1.07-.08-1.44-.83-.52-1.05-.88-.41-.76-.63-1.12c-.23-.38.2-1.14-.02-1.5-.23-.38-1.32-.21-1.54-.56-.24-.38-.5-.71-.73-1.06-.24-.38.57-1.42.35-1.76-.25-.38-.75-.56-.97-.9-.25-.38-1.26-.21-1.48-.54-.26-.38.31-1.3.08-1.62-.28-.4-1.21-.25-1.43-.55-.34-.46-.18-.39-.35-.61Z"/></svg>