<?xml version="1.0" encoding="UTF-8"?><svg xmlns="http://www.w3.org/2000/svg" width="300" height="300" viewBox="0 0 300 300"><defs><style>.uuid-7cb18eb7-0716-4cb8-9a7e-f9a129baedaf{fill:#f8c83a;stroke:#f8c83a;stroke-miterlimit:10;stroke-width:7px;}.uuid-23aa455e-35db-462d-b485-85e7cc04f573{fill:#ffcb30;stroke-width:0px;}.uuid-53b4cf89-c564-4e38-a6c7-d1d3f85a13ea{isolation:isolate;}.uuid-0eea007f-9e5f-47b2-8f3d-f7086d7ee13a{mix-blend-mode:multiply;}</style></defs><g class="uuid-53b4cf89-c564-4e38-a6c7-d1d3f85a13ea"><g id="uuid-43240fbc-b93b-426c-8433-15d2455cbb8d"><circle class="uuid-23aa455e-35db-462d-b485-85e7cc04f573" cx="150" cy="151" r="150"/><g class="uuid-0eea007f-9e5f-47b2-8f3d-f7086d7ee13a"><path class="uuid-7cb18eb7-0716-4cb8-9a7e-f9a129baedaf" d="m109.09,162.37l-12.11,32.18h-15.57l39.62-102.31h18.17l39.79,102.31h-16.09l-12.46-32.18h-41.35Zm38.23-10.32l-11.42-29.45c-2.59-6.68-4.33-12.75-6.05-18.67h-.35c-1.73,6.07-3.63,12.29-5.88,18.52l-11.42,29.6h35.12Z"/><path class="uuid-7cb18eb7-0716-4cb8-9a7e-f9a129baedaf" d="m212.02,100.44c.17,4.55-3.63,8.2-9.69,8.2-5.36,0-9.17-3.64-9.17-8.2s3.98-8.35,9.52-8.35,9.34,3.64,9.34,8.35Zm-16.95,94.11v-73.47h15.22v73.47h-15.22Z"/></g></g></g></svg>