<?xml version="1.0" encoding="UTF-8"?><svg id="uuid-489aca18-8376-4ee3-bb74-daef9d57b904" xmlns="http://www.w3.org/2000/svg" width="300" height="300" viewBox="0 0 300 300"><defs><style>.uuid-e4e9077e-36c4-46b2-abf3-d4dc2189e3e1{fill:#ffcb30;stroke-width:0px;}.uuid-c5da9b09-f60a-49ba-babe-94498021a9ef{fill:#fcf2dd;stroke:#fff;stroke-miterlimit:10;stroke-width:4px;}</style></defs><circle class="uuid-e4e9077e-36c4-46b2-abf3-d4dc2189e3e1" cx="150" cy="150" r="150"/><path class="uuid-c5da9b09-f60a-49ba-babe-94498021a9ef" d="m135.14,256.66c-5.17,0-9.95-1.16-14.34-3.48-4.39-2.32-7.95-5.58-10.69-9.78l11.27-8.89c1.26,2.42,3.08,4.3,5.47,5.63,2.38,1.33,5.15,2,8.3,2,5.35,0,9.5-1.83,12.45-5.49,2.95-3.66,4.42-8.79,4.42-15.42v-73.45h13.76v73.53c0,11.22-2.67,19.91-8,26.09-5.33,6.18-12.88,9.26-22.64,9.26Z"/><path class="uuid-c5da9b09-f60a-49ba-babe-94498021a9ef" d="m219.55,256.66c-4.77,0-9.26-.49-13.46-1.48-4.21-.99-8.14-2.47-11.81-4.45-3.67-1.98-7.1-4.45-10.29-7.41l8.57-11.56c3.73,3.56,7.85,6.23,12.35,8,4.5,1.78,9.38,2.67,14.64,2.67,7.11,0,12.62-1.46,16.53-4.37,3.91-2.91,5.87-6.99,5.87-12.23v-.07c0-4.1-.99-7.24-2.97-9.41-1.98-2.17-4.58-3.79-7.79-4.86-3.22-1.06-6.74-1.94-10.56-2.63-3.69-.69-7.41-1.51-11.17-2.45-3.76-.94-7.21-2.41-10.36-4.41-3.15-2-5.68-4.88-7.59-8.63-1.91-3.75-2.87-8.77-2.87-15.05v-.07c0-10.03,3.04-17.8,9.11-23.31,6.07-5.51,14.64-8.26,25.71-8.26,5.26,0,10.41.93,15.45,2.78,5.04,1.85,9.94,4.68,14.71,8.49l-7.83,12.01c-3.73-3.06-7.46-5.34-11.17-6.82-3.71-1.48-7.43-2.22-11.17-2.22-6.7,0-11.91,1.47-15.62,4.41-3.71,2.94-5.57,7.1-5.57,12.49v.07c0,4.05,1.08,7.14,3.24,9.26,2.16,2.13,4.98,3.69,8.47,4.71,3.49,1.01,7.23,1.96,11.23,2.85,3.6.79,7.2,1.74,10.8,2.85,3.6,1.11,6.87,2.72,9.82,4.82,2.95,2.1,5.31,4.98,7.08,8.63,1.78,3.66,2.67,8.42,2.67,14.3v.15c0,9.93-3.15,17.62-9.45,23.05-6.3,5.44-15.16,8.15-26.58,8.15Z"/></svg>