<?xml version="1.0" encoding="UTF-8"?><svg xmlns="http://www.w3.org/2000/svg" width="300" height="300" viewBox="0 0 300 300"><defs><style>.uuid-ce01feb1-04ab-4727-9be0-9bf823d411d1{stroke-width:0px;}.uuid-ce01feb1-04ab-4727-9be0-9bf823d411d1,.uuid-07e67eee-e33f-452d-b830-41210c1795b7{fill:#0688c2;}.uuid-ce01feb1-04ab-4727-9be0-9bf823d411d1,.uuid-126df64d-ee06-477a-9ee1-d9ba66186e92{mix-blend-mode:multiply;}.uuid-16816868-6db9-420d-a4c8-d73cc1d92a8a{isolation:isolate;}.uuid-07e67eee-e33f-452d-b830-41210c1795b7{stroke:#0688c2;stroke-miterlimit:10;stroke-width:8px;}</style></defs><g class="uuid-16816868-6db9-420d-a4c8-d73cc1d92a8a"><g id="uuid-65d28e17-1be0-4e73-8e45-d39c40930d70"><circle class="uuid-ce01feb1-04ab-4727-9be0-9bf823d411d1" cx="150" cy="150" r="150"/><g class="uuid-126df64d-ee06-477a-9ee1-d9ba66186e92"><path class="uuid-07e67eee-e33f-452d-b830-41210c1795b7" d="m84.78,89.1c7.27-1.14,16.78-2.12,28.89-2.12,14.88,0,25.78,3.27,32.7,9.16,6.4,5.23,10.21,13.24,10.21,23.05s-3.11,17.82-9,23.54c-7.96,8.01-20.93,12.1-35.64,12.1-4.5,0-8.65-.16-12.11-.98v44.14h-15.05v-108.89Zm15.05,53.14c3.29.82,7.44,1.14,12.46,1.14,18.17,0,29.24-8.34,29.24-23.54s-10.9-21.58-27.51-21.58c-6.57,0-11.59.49-14.19,1.14v42.84Z"/><path class="uuid-07e67eee-e33f-452d-b830-41210c1795b7" d="m170.42,183.27c4.5,2.78,12.46,5.72,20.07,5.72,11.07,0,16.26-5.23,16.26-11.77,0-6.87-4.33-10.63-15.57-14.55-15.05-5.07-22.14-12.92-22.14-22.4,0-12.75,10.9-23.22,28.89-23.22,8.48,0,15.92,2.29,20.59,4.91l-3.81,10.46c-3.29-1.96-9.34-4.58-17.13-4.58-9,0-14.01,4.91-14.01,10.79,0,6.54,5.02,9.48,15.92,13.41,14.53,5.23,21.97,12.1,21.97,23.87,0,13.9-11.42,23.71-31.31,23.71-9.17,0-17.65-2.12-23.53-5.4l3.81-10.95Z"/></g></g></g></svg>