<svg width="1377" height="1312" viewBox="0 0 1377 1312" fill="none" xmlns="http://www.w3.org/2000/svg">
<path d="M665.168 13.1649C676.244 -3.52812 700.756 -3.52812 711.832 13.1649L940.919 358.442C944.64 364.049 950.256 368.129 956.738 369.935L1355.91 481.114C1375.21 486.489 1382.78 509.801 1370.33 525.493L1112.74 850.065C1108.56 855.336 1106.41 861.938 1106.7 868.661L1124.31 1282.65C1125.16 1302.67 1105.33 1317.07 1086.56 1310.08L698.277 1165.4C691.971 1163.05 685.029 1163.05 678.723 1165.4L290.439 1310.08C271.667 1317.07 251.836 1302.67 252.688 1282.65L270.3 868.661C270.586 861.938 268.441 855.336 264.258 850.065L6.67233 525.493C-5.78107 509.801 1.7935 486.489 21.092 481.114L420.262 369.935C426.744 368.129 432.36 364.049 436.081 358.442L665.168 13.1649Z" fill="#E88395"/>
</svg>
