<svg width="620" height="620" viewBox="0 0 620 620" fill="none" xmlns="http://www.w3.org/2000/svg">
<path d="M310 0L428.439 146.983L604.828 214.205L501.638 372.267L492.213 560.795L310 511.5L127.787 560.795L118.362 372.267L15.1725 214.205L191.561 146.983L310 0Z" fill="#FBF2DD"/>
<path d="M192.2 298.52C192.2 302.413 191.267 305.747 189.4 308.52C187.587 311.293 185.053 313.427 181.8 314.92C178.547 316.36 174.733 317.08 170.36 317.08H158.92C158.333 317.08 158.04 317.347 158.04 317.88V336.92C158.04 338.307 157.24 339 155.64 339H143.72C143.027 339 142.547 338.867 142.28 338.6C142.013 338.28 141.88 337.8 141.88 337.16V281.32C141.88 280.2 142.333 279.64 143.24 279.64H168.52C172.893 279.64 176.867 280.333 180.44 281.72C184.013 283.053 186.867 285.133 189 287.96C191.133 290.733 192.2 294.253 192.2 298.52ZM175.72 298.28C175.72 296.733 175.347 295.427 174.6 294.36C173.907 293.293 172.947 292.493 171.72 291.96C170.493 291.373 169.107 291.08 167.56 291.08H159.72C158.6 291.08 158.04 291.613 158.04 292.68V303.96C158.04 305.027 158.44 305.56 159.24 305.56H168.04C170.387 305.56 172.253 304.893 173.64 303.56C175.027 302.227 175.72 300.467 175.72 298.28ZM215.998 339.8C211.678 339.8 207.865 338.867 204.558 337C201.305 335.133 198.745 332.573 196.878 329.32C195.065 326.013 194.158 322.253 194.158 318.04C194.158 313.56 195.118 309.667 197.038 306.36C198.958 303 201.571 300.413 204.878 298.6C208.185 296.733 211.918 295.8 216.078 295.8C220.451 295.8 224.265 296.76 227.518 298.68C230.825 300.6 233.385 303.24 235.198 306.6C237.065 309.907 237.998 313.72 237.998 318.04C237.998 322.253 237.065 326.013 235.198 329.32C233.331 332.573 230.745 335.133 227.438 337C224.185 338.867 220.371 339.8 215.998 339.8ZM216.078 330.52C217.785 330.52 219.198 330.067 220.318 329.16C221.438 328.253 222.265 326.84 222.798 324.92C223.331 323 223.598 320.6 223.598 317.72C223.598 314.787 223.305 312.36 222.718 310.44C222.185 308.52 221.358 307.107 220.238 306.2C219.171 305.24 217.785 304.76 216.078 304.76C214.425 304.76 213.011 305.24 211.838 306.2C210.718 307.107 209.891 308.52 209.358 310.44C208.825 312.36 208.558 314.787 208.558 317.72C208.558 320.653 208.825 323.08 209.358 325C209.891 326.867 210.718 328.253 211.838 329.16C213.011 330.067 214.425 330.52 216.078 330.52ZM245.807 339C245.06 339 244.554 338.867 244.287 338.6C244.02 338.28 243.887 337.8 243.887 337.16V298.28C243.887 297.16 244.34 296.6 245.247 296.6H256.287C257.14 296.6 257.567 297.08 257.567 298.04V302.68C257.567 303.053 257.7 303.293 257.967 303.4C258.287 303.453 258.58 303.293 258.847 302.92C259.807 301.533 260.954 300.307 262.287 299.24C263.62 298.173 265.034 297.347 266.527 296.76C268.02 296.12 269.38 295.8 270.607 295.8C272.58 295.8 273.567 296.307 273.567 297.32V308.04C273.567 309.053 273.087 309.453 272.127 309.24C271.06 308.973 269.914 308.787 268.687 308.68C267.514 308.52 266.58 308.44 265.887 308.44C264.927 308.44 263.994 308.627 263.087 309C262.18 309.32 261.327 309.773 260.527 310.36C259.78 310.947 259.194 311.613 258.767 312.36C258.34 313.107 258.127 313.853 258.127 314.6V336.92C258.127 338.307 257.327 339 255.727 339H245.807ZM299.279 306.28C298.639 306.28 298.319 306.6 298.319 307.24V324.52C298.319 326.12 298.746 327.293 299.599 328.04C300.506 328.787 301.919 329.16 303.839 329.16H307.679C308.053 329.16 308.346 329.32 308.559 329.64C308.826 329.907 308.959 330.227 308.959 330.6L308.879 336.36C308.879 337.48 308.186 338.173 306.799 338.44C305.786 338.6 304.693 338.733 303.519 338.84C302.346 338.893 301.173 338.947 299.999 339C298.879 339 297.759 339 296.639 339C292.906 339 289.866 338.12 287.519 336.36C285.226 334.547 284.079 331.933 284.079 328.52V307.64C284.079 306.733 283.706 306.28 282.959 306.28H278.639C277.466 306.28 276.879 305.747 276.879 304.68V297.96C276.879 297.053 277.413 296.6 278.479 296.6H283.599C284.133 296.6 284.426 296.307 284.479 295.72L285.679 283.72C285.786 282.707 286.239 282.2 287.039 282.2H297.279C298.239 282.2 298.719 282.733 298.719 283.8V295.72C298.719 296.253 298.986 296.52 299.519 296.52H307.439C308.506 296.52 309.039 296.973 309.039 297.88V304.68C309.039 305.747 308.426 306.28 307.199 306.28H299.279ZM340.739 296.6C341.379 296.6 341.832 296.76 342.099 297.08C342.365 297.4 342.499 297.773 342.499 298.2V304.92C342.499 305.827 341.992 306.28 340.979 306.28H335.219C334.632 306.28 334.339 306.6 334.339 307.24V337.4C334.339 338.467 333.859 339 332.899 339H321.379C320.525 339 320.099 338.493 320.099 337.48V307.08C320.099 306.547 319.885 306.28 319.459 306.28H314.339C313.272 306.28 312.739 305.827 312.739 304.92V298.2C312.739 297.773 312.872 297.4 313.139 297.08C313.405 296.76 313.859 296.6 314.499 296.6H319.059C319.752 296.6 320.099 296.173 320.099 295.32V290.76C320.099 287.293 321.165 284.573 323.299 282.6C325.432 280.627 328.392 279.64 332.179 279.64H340.819C342.205 279.64 342.899 280.253 342.899 281.48V287.56C342.899 287.933 342.792 288.28 342.579 288.6C342.365 288.867 342.045 289 341.619 289H337.779C336.712 289 335.805 289.427 335.059 290.28C334.312 291.133 333.939 292.173 333.939 293.4V295.64C333.939 296.28 334.259 296.6 334.899 296.6H340.739ZM366.467 339.8C362.147 339.8 358.334 338.867 355.027 337C351.774 335.133 349.214 332.573 347.347 329.32C345.534 326.013 344.627 322.253 344.627 318.04C344.627 313.56 345.587 309.667 347.507 306.36C349.427 303 352.04 300.413 355.347 298.6C358.654 296.733 362.387 295.8 366.547 295.8C370.92 295.8 374.734 296.76 377.987 298.68C381.294 300.6 383.854 303.24 385.667 306.6C387.534 309.907 388.467 313.72 388.467 318.04C388.467 322.253 387.534 326.013 385.667 329.32C383.8 332.573 381.214 335.133 377.907 337C374.654 338.867 370.84 339.8 366.467 339.8ZM366.547 330.52C368.254 330.52 369.667 330.067 370.787 329.16C371.907 328.253 372.734 326.84 373.267 324.92C373.8 323 374.067 320.6 374.067 317.72C374.067 314.787 373.774 312.36 373.187 310.44C372.654 308.52 371.827 307.107 370.707 306.2C369.64 305.24 368.254 304.76 366.547 304.76C364.894 304.76 363.48 305.24 362.307 306.2C361.187 307.107 360.36 308.52 359.827 310.44C359.294 312.36 359.027 314.787 359.027 317.72C359.027 320.653 359.294 323.08 359.827 325C360.36 326.867 361.187 328.253 362.307 329.16C363.48 330.067 364.894 330.52 366.547 330.52ZM408.676 336.84C408.676 337.64 408.462 338.2 408.036 338.52C407.662 338.84 407.076 339 406.276 339H396.276C394.942 339 394.276 338.387 394.276 337.16L394.596 281.32C394.596 280.2 395.076 279.64 396.036 279.64H407.316C408.222 279.64 408.676 280.147 408.676 281.16V336.84ZM430.627 336.84C430.627 337.64 430.44 338.2 430.067 338.52C429.694 338.84 429.08 339 428.227 339H418.307C417.56 339 417.054 338.867 416.787 338.6C416.52 338.28 416.387 337.8 416.387 337.16V298.28C416.387 297.16 416.867 296.6 417.827 296.6H429.267C430.174 296.6 430.627 297.107 430.627 298.12V336.84ZM430.707 290.12C430.707 291.56 429.88 292.28 428.227 292.28H418.227C417.48 292.28 416.974 292.12 416.707 291.8C416.44 291.48 416.307 291 416.307 290.36V281.4C416.307 280.227 416.787 279.64 417.747 279.64H429.267C430.227 279.64 430.707 280.173 430.707 281.24V290.12ZM451.22 321.72C451.22 323.533 451.62 325.08 452.42 326.36C453.273 327.64 454.393 328.627 455.78 329.32C457.22 329.96 458.82 330.28 460.58 330.28C462.18 330.28 463.727 329.933 465.22 329.24C466.713 328.493 468.313 327.213 470.02 325.4C470.233 325.187 470.42 325.08 470.58 325.08C470.74 325.027 471.06 325.08 471.54 325.24L478.1 327.96C478.953 328.333 479.06 328.92 478.42 329.72C476.553 332.333 474.66 334.387 472.74 335.88C470.873 337.32 468.793 338.333 466.5 338.92C464.207 339.507 461.593 339.8 458.66 339.8C454.5 339.8 450.74 338.893 447.38 337.08C444.02 335.267 441.38 332.76 439.46 329.56C437.54 326.36 436.58 322.653 436.58 318.44C436.58 313.907 437.567 309.933 439.54 306.52C441.567 303.107 444.233 300.467 447.54 298.6C450.9 296.733 454.527 295.8 458.42 295.8C462.58 295.8 466.233 296.707 469.38 298.52C472.58 300.28 475.087 302.84 476.9 306.2C478.767 309.56 479.7 313.64 479.7 318.44C479.7 319.08 479.62 319.56 479.46 319.88C479.353 320.2 478.98 320.387 478.34 320.44H452.34C452.02 320.44 451.753 320.547 451.54 320.76C451.327 320.973 451.22 321.293 451.22 321.72ZM464.5 312.92C465.033 312.92 465.38 312.867 465.54 312.76C465.753 312.6 465.86 312.28 465.86 311.8C465.86 310.787 465.62 309.72 465.14 308.6C464.66 307.427 463.913 306.413 462.9 305.56C461.887 304.707 460.607 304.28 459.06 304.28C457.62 304.28 456.313 304.627 455.14 305.32C453.967 305.96 453.06 306.92 452.42 308.2C451.78 309.48 451.46 311.027 451.46 312.84L464.5 312.92Z" fill="#1F89C3"/>
</svg>
