<?xml version="1.0" encoding="UTF-8"?><svg xmlns="http://www.w3.org/2000/svg" width="300" height="300" viewBox="0 0 300 300"><defs><style>.uuid-a9087151-d579-45a3-9be5-f69ad6428de5,.uuid-5eb6eb12-c146-494c-9785-d74f8d89c56b,.uuid-698aa318-492a-4609-93cd-508de4940a57{stroke-width:0px;}.uuid-a9087151-d579-45a3-9be5-f69ad6428de5,.uuid-698aa318-492a-4609-93cd-508de4940a57{fill:#0688c2;}.uuid-a9087151-d579-45a3-9be5-f69ad6428de5,.uuid-492f7d97-0a50-43b5-899f-bbb58d8d8625{mix-blend-mode:multiply;}.uuid-5eb6eb12-c146-494c-9785-d74f8d89c56b{fill:#e14638;}.uuid-4d3f3e64-9bb7-4a8f-baee-a78ff2130988{isolation:isolate;}</style></defs><g class="uuid-4d3f3e64-9bb7-4a8f-baee-a78ff2130988"><g id="uuid-d298ed87-0050-4b7c-89e5-9c54c5857613"><circle class="uuid-a9087151-d579-45a3-9be5-f69ad6428de5" cx="150" cy="150" r="150"/><path class="uuid-a9087151-d579-45a3-9be5-f69ad6428de5" d="m75,95.54l-13.25-2.72c14.75,18.57,29.5,37.15,44.25,55.72-16,15.33-32,30.67-48,46h21l40-30,76,77,47-19"/><g class="uuid-492f7d97-0a50-43b5-899f-bbb58d8d8625"><line class="uuid-5eb6eb12-c146-494c-9785-d74f8d89c56b" x1="142" y1="148" x2="198" y2="108"/></g><path class="uuid-a9087151-d579-45a3-9be5-f69ad6428de5" d="m195,242l47-19.46V75.63l-43-17.63"/><path class="uuid-a9087151-d579-45a3-9be5-f69ad6428de5" d="m195,242.14l47-19.46V75.77l-43-17.63"/><path class="uuid-a9087151-d579-45a3-9be5-f69ad6428de5" d="m58,194.54h21l40-30c41-29.64,82-59.27,123-88.91l-42.52-17.17c-47.16,45.36-94.32,90.72-141.48,136.08Z"/><path class="uuid-698aa318-492a-4609-93cd-508de4940a57" d="m106,148.54c-16,15.33-32,30.67-48,46"/></g></g></svg>